<?xml version="1.0" encoding="utf-8"?>
<!-- Generator: Adobe Illustrator 16.0.4, SVG Export Plug-In . SVG Version: 6.00 Build 0)  -->
<!DOCTYPE svg PUBLIC "-//W3C//DTD SVG 1.1//EN" "http://www.w3.org/Graphics/SVG/1.1/DTD/svg11.dtd">
<svg version="1.1" id="Layer_1" xmlns="http://www.w3.org/2000/svg" xmlns:xlink="http://www.w3.org/1999/xlink" x="0px" y="0px"
	 width="283.46px" height="283.46px" viewBox="0 0 283.46 283.46" enable-background="new 0 0 283.46 283.46" xml:space="preserve">
<rect x="-0.54" y="-0.54" width="285" height="284"/>
<g>
	<g>
		<path fill="#FFFFFF" d="M56.26,247.33c0-8.226,7.974-23.922,14.205-41.117l41.865-113.635c1.745-6.229,3.988-12.211-0.749-18.689
			c6.729-2.99,14.703-4.984,24.422-4.984c9.72,0,22.428,0.998,25.418,8.223c0.748,1.496,4.985,11.963,6.479,15.7l40.121,107.652
			c6.729,18.191,16.696,36.633,27.163,45.355c-1.744,3.24-6.23,5.98-11.712,7.973c-5.482,1.994-12.46,2.991-18.44,2.991
			c-6.728,0-13.208-1.247-15.7-4.235c-2.742-2.742-3.986-6.23-7.975-19.439c-1.743-5.48-8.473-26.911-10.965-34.389h-62.049
			l-3.986,9.97c-3.74,9.716-5.734,18.438-5.734,26.664c0,6.23,0.998,11.461,2.992,15.699c-3.988,3.737-14.703,5.73-25.419,5.73
			C70.214,256.799,56.26,255.552,56.26,247.33z M159.429,168.582l-19.937-52.08l-19.937,52.08H159.429z"/>
	</g>
	<g>
		<path fill="#FFFFFF" d="M239.17,90.519c-0.565,0-1.125-0.25-1.502-0.729c-11.01-14.053-25.257-25.623-41.194-33.457
			c-0.943-0.465-1.333-1.605-0.869-2.551c0.466-0.943,1.607-1.33,2.552-0.869c16.448,8.088,31.15,20.027,42.512,34.525
			c0.65,0.83,0.504,2.026-0.324,2.676C239.994,90.386,239.581,90.519,239.17,90.519z"/>
	</g>
	<g>
		<path fill="#FFFFFF" d="M44.074,234.169c-0.617,0-1.223-0.299-1.59-0.854c-10.443-15.76-17.171-33.988-19.456-52.711
			c-0.127-1.044,0.616-1.995,1.66-2.122c1.056-0.128,1.995,0.615,2.123,1.661c2.213,18.14,8.733,35.799,18.851,51.068
			c0.581,0.876,0.341,2.06-0.537,2.641C44.8,234.067,44.436,234.169,44.074,234.169z"/>
	</g>
	<g>
		<path fill="#FFFFFF" d="M18.057,162.124c0.475-1.825,1.116-3.312,2.051-4.354c0.935-1.037,2.141-1.607,3.721-1.629
			c1.715-0.024,3.146,0.644,4.189,1.788c1.044,1.147,1.646,2.747,1.672,4.645c0.034,2.637-0.859,4.758-2.345,5.937
			c-0.393,0.321-1.048,0.646-1.467,0.653c-0.527,0.008-1.06-0.277-1.461-0.692c-0.401-0.417-0.698-0.914-0.784-1.412
			c2.074-0.74,3.449-2.314,3.42-4.528c-0.014-0.977-0.369-1.841-0.931-2.466c-0.534-0.625-1.356-0.984-2.306-0.972
			c-1.371,0.019-2.728,1.09-3.453,4.081c-0.574,2.301-1.452,3.657-2.47,4.435c-1.018,0.778-2.123,1.004-3.098,1.017
			c-1.66,0.025-2.91-0.724-3.77-1.872c-0.831-1.148-1.275-2.726-1.297-4.387c-0.01-0.657,0.105-1.872,0.409-2.93
			c0.328-1.035,0.87-1.887,1.742-1.897c0.63-0.009,1.531,0.244,1.962,1.003c-1.121,0.832-1.763,2.211-1.74,3.897
			c0.009,0.66,0.179,1.527,0.583,2.234c0.405,0.732,1.018,1.252,1.967,1.238c0.607-0.007,1.263-0.229,1.861-0.788
			C17.139,164.561,17.682,163.605,18.057,162.124z"/>
		<path fill="#FFFFFF" d="M23.196,142.619l4.082,0.501c1.465,0.172,2.367-0.04,3.159-0.239c0.182,0.26,0.252,1.012,0.18,1.639
			c-0.12,1.022-0.336,1.288-1.043,1.206l-0.394-0.046c-0.156-0.02-0.338-0.04-0.521-0.087c0.923,0.505,1.667,1.867,1.474,3.517
			c-0.206,1.754-0.962,2.78-2.039,3.371c-1.078,0.59-2.392,0.701-3.832,0.533c-0.812-0.094-1.567-0.21-2.215-0.365
			c-0.645-0.154-1.19-0.243-1.583-0.29l-0.708-0.083c-0.627-0.074-1.037,0.012-1.495,0.091c-0.158-0.258-0.234-0.957-0.172-1.481
			c0.106-0.917,0.385-1.254,1.405-1.136c0.289,0.035,0.625,0.101,0.965,0.165c0.693,0.188,1.443,0.354,2.22,0.526
			c0.387,0.098,0.777,0.171,1.143,0.214c0.943,0.11,1.926,0.092,2.682-0.245c0.757-0.336,1.308-0.961,1.443-2.114
			c0.096-0.838-0.246-1.541-0.744-2.051c-0.497-0.51-1.174-0.854-1.715-0.996c-1.047-0.121-2.065-0.268-3.11-0.418l-0.262-0.03
			c-0.444-0.052-1.047-0.121-1.602-0.134c-0.556-0.012-1.093,0.031-1.341,0.109c-0.18-0.261-0.27-0.882-0.198-1.484
			c0.11-0.941,0.411-1.252,1.562-1.116c0.446,0.052,0.863,0.126,1.305,0.206L23.196,142.619z"/>
		<path fill="#FFFFFF" d="M16.872,134.101c0.905,0.185,1.447,1.077,1.262,1.981c-0.188,0.904-1.027,1.457-1.932,1.271
			c-0.904-0.187-1.482-1.031-1.295-1.937C15.092,134.514,15.968,133.914,16.872,134.101z M23.95,135.934l3.587,0.738
			c1.242,0.254,2.009,0.305,2.605,0.293c0.301-0.02,0.574-0.043,0.795-0.076c0.249-0.031,0.477-0.092,0.726-0.121
			c0.185,0.279,0.155,1.08,0.006,1.802c-0.134,0.646-0.28,0.966-0.525,1.104c-0.25,0.164-0.609,0.09-1.206-0.033
			c-0.463-0.095-1-0.231-1.634-0.416c-0.639-0.159-1.256-0.312-1.849-0.436l-3.201-0.658c-0.492-0.101-1.091-0.197-1.643-0.257
			c-0.527-0.055-1.05-0.001-1.309,0.081c-0.158-0.409-0.166-0.895-0.043-1.488c0.191-0.93,0.444-1.256,1.608-1.016
			c0.283,0.059,0.62,0.127,0.951,0.223C23.149,135.769,23.537,135.85,23.95,135.934z"/>
		<path fill="#FFFFFF" d="M31.687,126.862c0.485-0.165,1.004-0.155,1.411-0.042c1.142,0.32,1.287,1.074,0.972,2.191l-0.156,0.559
			c-0.564,1.515-1.509,2.151-2.578,2.344c-1.068,0.193-2.283-0.066-3.477-0.402l-4.011-1.129c-0.079,0.28-0.207,0.737-0.278,1.184
			c-0.072,0.445-0.09,0.906-0.047,1.137c-0.386,0.111-0.841,0.066-1.22-0.041c-0.508-0.143-0.767-0.297-0.809-0.639
			c-0.047-0.313,0.057-0.778,0.285-1.591l0.164-0.585l-1.119-0.314c-0.483-0.136-1.048-0.268-1.569-0.358
			c-0.522-0.093-1.008-0.118-1.272-0.056c-0.101-0.33-0.077-0.9,0.087-1.483l0.035-0.126c0.339-0.811,0.628-1.058,1.769-0.736
			c0.331,0.093,0.688,0.193,1.086,0.332c0.424,0.147,0.85,0.293,1.332,0.429l0.331,0.094l0.327-1.168
			c0.229-0.812,0.417-1.774,0.281-2.169c0.33-0.098,0.791-0.078,1.195,0.036c0.89,0.25,1.05,0.46,0.8,1.348l-0.136,0.483
			c-0.065,0.229-0.137,0.481-0.231,0.729l-0.237,0.839l-0.121,0.43l4.267,1.2c1.547,0.436,2.667,0.448,3.039-0.869
			C31.985,127.852,31.839,127.207,31.687,126.862z"/>
		<path fill="#FFFFFF" d="M35.26,115.258c1.5,0.582,2.328,0.706,3.215,0.682c0.129,0.248,0.039,0.922-0.199,1.536
			c-0.191,0.491-0.346,0.742-0.611,0.839c-0.272,0.118-0.602,0.021-1.195-0.125c0.476,1.399,0.429,2.684-0.02,3.84
			c-0.812,2.09-2.756,2.945-4.747,2.172c-1.083-0.421-1.772-1.197-2.076-2.163s-0.25-2.05,0.198-3.204
			c0.374-0.957,0.843-1.879,1.388-2.771l-0.246-0.096c-1.475-0.573-2.729-0.184-3.445,1.661c-0.526,1.352-0.328,2.446,0.069,3.394
			c-0.485,0.376-1.164,0.368-1.629,0.188c-0.69-0.269-0.85-1.094-0.789-1.977c0.058-0.882,0.383-1.859,0.612-2.449
			c0.696-1.795,1.66-2.75,2.789-3.104c1.152-0.344,2.491-0.079,3.966,0.493l1.008,0.393
			C33.917,114.707,34.506,114.937,35.26,115.258z M31.747,118.984c-0.229,0.592-0.352,1.194-0.277,1.733
			c0.076,0.536,0.426,1.013,1.043,1.251c1.08,0.422,1.844-0.158,2.216-1.117c0.353-0.911,0.346-2.13-0.163-3.373
			c-0.581-0.254-1.086-0.479-1.676-0.709C32.46,117.367,32.041,118.223,31.747,118.984z"/>
		<path fill="#FFFFFF" d="M27.689,104.538l3.974,2.073c-0.293-1.49-0.144-2.69,0.432-3.789c0.646-1.238,1.78-1.986,3.081-2.258
			c1.312-0.237,2.796,0.002,4.128,0.697c1.495,0.78,2.605,2.073,3.133,3.568c0.529,1.496,0.473,3.252-0.405,4.936
			c-0.488,0.933-1.2,1.9-2.102,2.887c-0.096,0.129-0.217,0.245-0.349,0.326l-0.25,0.254L26.243,106.4
			c-0.375-0.197-1.006-0.525-1.661-0.809c-0.655-0.283-1.289-0.494-1.655-0.476c-0.03-0.344,0.146-0.907,0.402-1.398
			c0.5-0.957,0.984-1.031,1.99-0.508c0.303,0.16,0.654,0.343,1.041,0.574C26.743,104.015,27.199,104.281,27.689,104.538z
			 M39.835,108.678c0.5-0.959,0.625-2.054,0.334-3.038s-0.957-1.868-2.009-2.417c-0.911-0.475-1.852-0.669-2.691-0.543
			c-0.84,0.128-1.508,0.551-1.885,1.276c-0.451,0.864-0.414,2.104,0.229,3.78l1.495,0.778l0.981,0.513
			c0.679,0.354,1.322,0.66,1.801,0.881c0.236,0.122,0.41,0.185,0.539,0.223C38.975,109.924,39.457,109.401,39.835,108.678z"/>
		<path fill="#FFFFFF" d="M46.597,95.757c0.541-0.06,1.15,0.116,1.659,0.446c0.996,0.645,0.855,1.589,0.181,2.631
			c-1.104,1.703-2.366,2.145-3.691,1.911c-1.327-0.231-2.654-1.093-3.982-1.952l-8.056-5.314c-0.375-0.245-0.863-0.561-1.333-0.804
			c-0.449-0.227-0.884-0.382-1.155-0.401c-0.002-0.38,0.194-0.975,0.495-1.439c0.516-0.797,0.91-0.824,1.863-0.206
			c0.242,0.157,0.53,0.344,0.848,0.579c0.317,0.238,0.659,0.49,1.034,0.734l7.966,5.163c0.685,0.444,1.436,0.837,2.155,0.988
			c0.719,0.152,1.361,0.034,1.806-0.651C46.673,96.998,46.701,96.421,46.597,95.757z"/>
		<path fill="#FFFFFF" d="M45.85,92.378c-1.764-1.383-2.535-2.925-2.652-4.356c-0.096-1.418,0.422-2.721,1.205-3.717
			c1.902-2.432,4.509-2.465,7.147-0.4c0.396,0.311,0.732,0.609,1.12,1.014l-4.784,6.104c1.611,1.027,3.146,0.691,4.382-0.889
			c0.7-0.893,1.198-1.911,0.773-3.08c0.575-0.221,1.31-0.047,1.788,0.326c0.499,0.393,0.612,1.018,0.422,1.772
			s-0.673,1.585-1.275,2.354c-1.023,1.309-2.36,2.07-3.768,2.24C48.799,93.918,47.283,93.5,45.85,92.378z M45.872,85.592
			c-1.09,1.391-0.744,3.002,0.553,4.254l3.533-4.508l-0.167-0.129C48.482,84.184,46.914,84.26,45.872,85.592z"/>
		<path fill="#FFFFFF" d="M55.607,62.705c0.339-0.066,0.633,0.02,0.869,0.27c0.435,0.461,0.623,1.043,0.582,1.732
			c-0.486-0.014-1.549,0.01-2.375,0.787c-0.615,0.576-0.931,1.199-0.788,2.043c0.141,0.846,0.742,1.908,2.061,3.311l0.416,0.441
			l1.497-1.408c0.556-0.525,1.197-1.27,1.398-1.785c0.408,0.086,0.847,0.361,1.152,0.688c0.634,0.672,0.47,1.078-0.354,1.854
			c-0.173,0.162-0.384,0.361-0.652,0.576l-0.845,0.797l-0.807,0.758l3.272,3.475c1.3,1.383,2.632,2.338,3.569,2.76
			c0.051,0.242-0.494,0.936-1.051,1.459l-0.155,0.145c-0.574,0.504-0.952,0.717-1.458,0.178l-0.435-0.459
			c-0.252-0.27-0.522-0.596-0.81-0.979c-0.286-0.344-0.592-0.707-0.898-1.031l-6.052-6.434c-1.083-1.152-1.882-2.504-2.082-3.906
			c-0.181-1.387,0.272-2.826,1.674-4.145C54.007,63.197,54.752,62.678,55.607,62.705z"/>
		<path fill="#FFFFFF" d="M64.91,63.594c1.38-1.1,2.944-1.467,4.458-1.254c1.495,0.225,2.881,1.041,3.853,2.26
			c0.986,1.236,1.503,2.779,1.423,4.289c-0.078,1.512-0.832,3.021-2.256,4.154c-1.341,1.064-2.902,1.432-4.382,1.227
			c-1.499-0.191-2.903-1.025-3.936-2.326c-0.986-1.238-1.447-2.795-1.331-4.301C62.855,66.137,63.567,64.66,64.91,63.594z
			 M71.014,71.271c0.887-0.705,1.27-1.582,1.284-2.535c0.014-0.957-0.382-1.922-1.039-2.75c-0.738-0.926-1.634-1.461-2.539-1.582
			c-0.891-0.104-1.801,0.15-2.565,0.758c-0.763,0.605-1.192,1.422-1.241,2.334c-0.068,0.932,0.302,1.949,1.041,2.879
			c0.592,0.744,1.41,1.307,2.321,1.523C69.191,72.113,70.125,71.977,71.014,71.271z"/>
		<path fill="#FFFFFF" d="M77.796,54.658c0.291-0.184,0.672-0.365,1.012-0.426c0.336-0.059,0.678,0.037,0.863,0.324
			c0.284,0.445,0.505,1.182,0.236,1.887c-0.507,0.041-0.941,0.191-1.319,0.434c-1,0.641-1.692,1.959-1.336,4.232l0.995,1.557
			c0.781,1.223,1.31,1.854,1.749,2.295c0.236,0.223,0.444,0.402,0.624,0.537c0.195,0.16,0.397,0.279,0.591,0.438
			c-0.077,0.27-0.637,0.814-1.259,1.213c-0.911,0.58-1.212,0.648-1.667-0.064l-0.199-0.309c-0.212-0.334-0.432-0.727-0.694-1.186
			s-0.525-0.918-0.808-1.363l-1.816-2.844c-0.184-0.289-0.598-0.934-1.038-1.527c-0.444-0.594-0.93-1.16-1.256-1.326
			c0.146-0.312,0.551-0.76,1.017-1.057c0.802-0.51,1.187-0.445,1.741,0.422c0.126,0.199,0.27,0.424,0.388,0.66
			c0.134,0.256,0.291,0.502,0.447,0.744c-0.107-0.805-0.076-1.732,0.182-2.555C76.519,55.945,76.997,55.17,77.796,54.658z"/>
		<path fill="#FFFFFF" d="M98.946,48.072c0.353,0.882,0.705,1.762,1.09,2.658c0.5,1.162,0.916,1.99,1.326,2.676
			c0.41,0.684,0.795,1.178,1.229,1.65c-0.048,0.223-0.702,0.703-1.379,0.996c-0.556,0.24-1.173,0.477-1.413-0.08l-0.229-0.533
			c-0.094-0.217-0.164-0.445-0.233-0.674c-0.082,0.611-0.258,1.203-0.616,1.701c-0.349,0.523-0.861,1.004-1.733,1.379
			c-1.354,0.586-2.673,0.523-3.81-0.049c-1.162-0.562-2.126-1.67-2.765-3.146c-0.614-1.426-0.711-3.051-0.251-4.514
			c0.47-1.437,1.509-2.689,3.155-3.4c1.042-0.447,1.832-0.414,2.4-0.229c-0.343-0.858-0.912-2.249-1.548-3.726
			c-0.584-1.355-1.156-2.747-1.939-3.298c0.183-0.309,0.662-0.658,1.171-0.878c0.581-0.25,0.962-0.301,1.271-0.118
			c0.319,0.207,0.521,0.609,0.801,1.262c0.451,1.041,0.992,2.301,1.605,3.789L98.946,48.072z M92.538,53.65
			c0.345,0.799,0.907,1.504,1.594,1.895c0.686,0.395,1.506,0.5,2.475,0.082c1.236-0.531,1.81-1.727,1.787-2.779l-0.042-0.096
			c-0.104-0.244-0.229-0.535-0.385-0.898l-0.49-1.138c-0.178-0.411-0.355-0.823-0.521-1.269l-0.521-1.211
			c-0.616-0.165-1.475-0.225-2.275,0.12c-0.967,0.417-1.583,1.257-1.86,2.21C92.021,51.518,92.109,52.658,92.538,53.65z"/>
		<path fill="#FFFFFF" d="M112.05,40.586c-0.167,0.273-0.315,0.953-0.332,1.704c-0.121,4.262-0.292,8.454-0.448,12.698
			c-0.043,1.201-0.088,2.125-0.07,2.811c0.017,0.686-0.01,1.219-0.061,1.594c-0.109,0.723-0.355,0.908-1.137,1.148
			c-0.479,0.148-0.938,0.18-1.348,0.195c-0.193,0.004-0.384,0.008-0.533-0.027c-0.142-0.012-0.259-0.031-0.292-0.051
			c0.392-0.781,0.69-2.061,0.896-3.449c0.215-1.363,0.34-2.84,0.4-3.988l-0.251,0.078c-0.682,0.209-0.94,0.262-1.298-0.18
			c-0.033-0.02-0.13-0.154-0.315-0.398c-0.213-0.24-0.456-0.578-0.78-1.004l-2.342-2.947c-0.879-1.057-1.73-2.119-2.438-2.979
			c-0.228-0.286-0.586-0.647-0.888-0.911c-0.33-0.258-0.65-0.49-0.891-0.555c0.224-0.257,0.688-0.538,1.194-0.694
			c0.73-0.226,1.109-0.341,1.479-0.124c0.125,0.038,0.32,0.229,0.599,0.502c0.544,0.604,1.315,1.497,2.194,2.552
			c0.42,0.56,0.866,1.113,1.313,1.667l2.508,3.119c0.029-1.252,0.081-2.51,0.111-3.762l0.086-3.754
			c-0.005-0.467,0.01-0.857,0.009-1.217c-0.009-0.66,0.06-1.151,0.402-1.477c0.169-0.164,0.431-0.3,0.81-0.416
			C111.234,40.535,111.884,40.5,112.05,40.586z"/>
		<path fill="#FFFFFF" d="M121.213,50.598c-1.213,0.234-2.405,0.197-3.309-0.029c-0.904-0.227-1.543-0.611-1.645-1.13
			c-0.065-0.336-0.047-0.796,0.06-1.22c0.104-0.425,0.304-0.785,0.594-0.948c1.091,1.185,2.521,1.497,3.763,1.254
			c1.216-0.235,2.08-0.78,1.871-1.843c-0.146-0.75-0.92-1.001-1.911-1.131c-0.517-0.034-1.039-0.094-1.608-0.117
			c-1.143-0.073-2.248-0.367-3.037-1.101c-0.389-0.354-0.657-0.894-0.792-1.593c-0.167-0.854,0.064-1.731,0.68-2.443
			c0.587-0.705,1.5-1.258,2.666-1.484c0.751-0.147,1.755-0.233,2.598-0.183c0.848,0.075,1.492,0.354,1.685,0.935
			c0.065,0.336,0.125,1.05-0.484,1.785c-0.906-0.657-2.085-0.91-3.223-0.689c-1.011,0.196-1.815,0.758-1.638,1.664
			c0.177,0.904,0.858,1.095,1.809,1.152c0.465,0.043,1.002,0.045,1.572,0.07c1.157,0.016,2.652,0.369,3.34,1.283
			c0.333,0.472,0.574,1.016,0.69,1.611c0.22,1.141-0.212,2.083-0.94,2.763C123.206,49.914,122.173,50.41,121.213,50.598z"/>
		<path fill="#FFFFFF" d="M133.106,45.473c0.387,0.383,0.637,0.966,0.701,1.568c0.13,1.18-0.693,1.668-1.927,1.801
			c-2.017,0.221-3.155-0.479-3.812-1.654c-0.659-1.176-0.828-2.749-1-4.322l-0.962-9.603c-0.048-0.446-0.111-1.024-0.22-1.542
			c-0.108-0.493-0.259-0.928-0.418-1.149c0.293-0.243,0.879-0.466,1.43-0.524c0.944-0.104,1.215,0.185,1.336,1.313
			c0.031,0.288,0.069,0.628,0.086,1.023c0.016,0.396,0.034,0.819,0.084,1.266l1.023,9.437c0.089,0.814,0.258,1.646,0.594,2.297
			c0.335,0.653,0.832,1.078,1.645,0.989C132.19,46.314,132.657,45.973,133.106,45.473z"/>
		<path fill="#FFFFFF" d="M135.186,42.781c-0.055-2.241,0.647-3.815,1.677-4.815c1.032-0.976,2.368-1.402,3.631-1.434
			c3.088-0.073,4.771,1.919,4.851,5.265c0.012,0.502-0.004,0.95-0.068,1.506l-7.752,0.187c0.23,1.895,1.468,2.867,3.47,2.817
			c1.136-0.027,2.236-0.29,2.87-1.36c0.537,0.304,0.869,0.981,0.883,1.589c0.016,0.633-0.395,1.117-1.099,1.451
			c-0.706,0.334-1.651,0.487-2.627,0.512c-1.661,0.038-3.099-0.506-4.126-1.484C135.871,46.035,135.229,44.602,135.186,42.781z
			 M140.438,38.486c-1.767,0.042-2.793,1.334-2.932,3.131l5.721-0.139l-0.005-0.209C143.184,39.607,142.125,38.445,140.438,38.486z"
			/>
		<path fill="#FFFFFF" d="M157.356,46.73c0.452,0.595,0.938,1.086,1.339,1.334c-0.271,0.691-1.255,1.054-1.965,0.994
			c-0.526-0.047-0.702-0.143-1.125-0.762c-0.211-0.309-0.515-0.761-0.909-1.404c-0.395-0.642-1.005-1.516-1.779-2.643
			c-0.268,0.321-0.586,0.638-0.937,1.005c-0.696,0.706-1.315,1.418-1.765,2.016c-0.212,0.325-0.341,0.578-0.357,0.789
			c-0.014,0.13,0.006,0.212,0.052,0.296c-0.515,0.139-0.991,0.125-1.542,0.076c-0.709-0.062-1.375-0.33-1.338-0.725
			c0.033-0.395,0.771-1.257,1.701-2.233c0.465-0.464,0.961-0.976,1.507-1.484c0.521-0.511,0.988-0.999,1.394-1.413
			c-0.646-1.088-1.324-2.102-2-3.141c-0.256-0.418-0.558-0.895-0.863-1.317c-0.308-0.425-0.6-0.742-0.882-0.844
			c0.481-0.356,1.125-0.457,1.625-0.414c0.395,0.034,0.945,0.082,1.245,0.293c0.299,0.211,0.721,0.831,1.212,1.59l1.426,2.453
			c0.468-0.488,1.108-1.173,1.664-1.786s0.981-1.238,1.019-1.659l0.012-0.13c0.297-0.081,0.803-0.09,1.301-0.047l0.184,0.017
			c0.392,0.06,1.045,0.169,1.006,0.616c-0.014,0.157-0.139,0.385-0.354,0.712c-0.214,0.324-0.628,0.817-1.186,1.431l-2.333,2.495
			C155.335,43.826,156.437,45.459,157.356,46.73z"/>
		<path fill="#FFFFFF" d="M164.82,42.092l-0.626,3.612c-0.215,1.246-0.241,2.017-0.211,2.61c0.029,0.301,0.062,0.573,0.104,0.796
			c0.037,0.246,0.104,0.472,0.144,0.72c-0.274,0.193-1.077,0.188-1.805,0.062c-0.648-0.112-0.974-0.249-1.12-0.487
			c-0.172-0.246-0.107-0.609-0.005-1.205c0.082-0.468,0.202-1.01,0.366-1.65c0.141-0.645,0.273-1.263,0.376-1.859l0.559-3.223
			c0.085-0.493,0.164-1.095,0.206-1.649c0.037-0.527-0.033-1.048-0.123-1.304c0.405-0.173,0.891-0.193,1.488-0.091
			c0.934,0.163,1.266,0.406,1.062,1.577c-0.047,0.285-0.106,0.621-0.191,0.954C164.96,41.287,164.892,41.678,164.82,42.092z
			 M166.43,34.962c-0.157,0.909-1.031,1.479-1.941,1.321c-0.907-0.157-1.488-0.979-1.331-1.889c0.159-0.909,0.986-1.515,1.895-1.358
			C165.961,33.193,166.587,34.052,166.43,34.962z"/>
		<path fill="#FFFFFF" d="M176.011,51.406c-0.124,0.486-0.701,0.828-1.499,0.979c-0.801,0.148-1.812,0.164-2.757-0.078
			c-1.634-0.416-2.889-1.363-3.649-2.645c-0.762-1.283-1.009-2.869-0.574-4.58c0.387-1.508,1.324-2.846,2.634-3.71
			c1.276-0.843,2.865-1.2,4.576-0.763c0.688,0.176,1.568,0.562,2.263,1.039c0.688,0.504,1.14,1.08,0.991,1.666
			c-0.125,0.486-0.55,1.086-1.273,1.365c-0.379-0.971-1.174-1.797-2.374-2.104c-0.919-0.233-1.88-0.098-2.669,0.435
			c-0.812,0.529-1.472,1.394-1.784,2.62c-0.241,0.945-0.144,1.949,0.296,2.796c0.435,0.845,1.243,1.514,2.368,1.801
			c1.2,0.306,2.091-0.201,2.88-0.843c0.358,0.309,0.521,0.73,0.59,1.103C176.098,50.857,176.062,51.203,176.011,51.406z"/>
		<path fill="#FFFFFF" d="M181.409,55.303c-1.167-0.422-2.167-1.062-2.826-1.723c-0.66-0.66-1.012-1.318-0.83-1.814
			c0.115-0.322,0.367-0.709,0.677-1.019c0.306-0.31,0.664-0.517,0.997-0.509c0.326,1.578,1.394,2.58,2.584,3.012
			c1.166,0.42,2.185,0.396,2.551-0.619c0.262-0.721-0.273-1.334-1.058-1.955c-0.427-0.295-0.844-0.613-1.32-0.926
			c-0.944-0.65-1.741-1.472-2.039-2.506c-0.155-0.504-0.108-1.103,0.136-1.773c0.295-0.817,0.946-1.451,1.837-1.746
			c0.867-0.306,1.937-0.311,3.052,0.093c0.719,0.261,1.625,0.7,2.322,1.177c0.691,0.502,1.102,1.07,0.969,1.668
			c-0.117,0.322-0.433,0.965-1.335,1.285c-0.44-1.029-1.321-1.852-2.411-2.247c-0.968-0.349-1.945-0.281-2.26,0.585
			c-0.313,0.869,0.175,1.381,0.961,1.918c0.377,0.277,0.838,0.556,1.314,0.868c0.984,0.608,2.083,1.68,2.205,2.817
			c0.045,0.576-0.029,1.168-0.235,1.738c-0.396,1.09-1.254,1.678-2.226,1.887C183.466,55.738,182.327,55.635,181.409,55.303z"/>
	</g>
	<g>
		<path fill="#FFFFFF" d="M247.295,226.252c1.231,0.833,1.954,1.116,2.759,1.277c0.065,0.251-0.155,0.839-0.497,1.344
			c-0.275,0.403-0.465,0.599-0.723,0.632c-0.269,0.052-0.546-0.105-1.053-0.361c0.141,1.362-0.166,2.511-0.81,3.46
			c-1.16,1.716-3.091,2.09-4.728,0.981c-0.89-0.603-1.351-1.445-1.425-2.377c-0.074-0.936,0.196-1.9,0.837-2.85
			c0.535-0.789,1.148-1.521,1.824-2.213l-0.203-0.137c-1.211-0.82-2.424-0.729-3.45,0.786c-0.751,1.112-0.797,2.14-0.637,3.074
			c-0.515,0.241-1.124,0.094-1.507-0.167c-0.564-0.383-0.54-1.16-0.306-1.942c0.237-0.782,0.729-1.599,1.058-2.083
			c0.997-1.475,2.064-2.139,3.154-2.225c1.111-0.074,2.262,0.441,3.477,1.261l0.828,0.562
			C246.197,225.481,246.683,225.81,247.295,226.252z M243.358,228.892c-0.328,0.482-0.562,1.002-0.604,1.502
			c-0.045,0.502,0.176,1.004,0.679,1.347c0.891,0.599,1.696,0.233,2.229-0.554c0.506-0.747,0.752-1.849,0.551-3.075
			c-0.472-0.349-0.881-0.655-1.366-0.983C244.336,227.579,243.783,228.265,243.358,228.892z"/>
		<path fill="#FFFFFF" d="M249.92,212.718c0.762,0.432,1.527,0.866,2.324,1.289c1.035,0.55,1.81,0.908,2.504,1.164
			c0.689,0.257,1.255,0.391,1.842,0.482c0.093,0.188-0.098,0.914-0.419,1.517c-0.262,0.496-0.571,1.023-1.066,0.759l-0.473-0.251
			c-0.195-0.103-0.379-0.228-0.56-0.353c0.293,0.488,0.509,1.018,0.539,1.584c0.051,0.581-0.042,1.223-0.453,1.998
			c-0.64,1.207-1.629,1.923-2.78,2.169c-1.164,0.266-2.5,0.024-3.813-0.673c-1.271-0.676-2.28-1.791-2.796-3.113
			c-0.491-1.311-0.464-2.815,0.313-4.28c0.494-0.927,1.082-1.358,1.598-1.554c-0.74-0.423-1.957-1.096-3.271-1.794
			c-1.207-0.641-2.423-1.313-3.309-1.261c-0.047-0.326,0.098-0.857,0.337-1.311c0.273-0.518,0.521-0.772,0.85-0.82
			c0.35-0.033,0.729,0.138,1.31,0.447c0.927,0.494,2.047,1.088,3.349,1.808L249.92,212.718z M248.518,220.451
			c0.711,0.379,1.524,0.562,2.247,0.449c0.724-0.113,1.376-0.513,1.833-1.375c0.585-1.098,0.309-2.293-0.316-3.04l-0.086-0.046
			c-0.216-0.113-0.475-0.253-0.798-0.423l-1.012-0.538c-0.367-0.194-0.733-0.39-1.109-0.616l-1.078-0.572
			c-0.539,0.238-1.192,0.689-1.571,1.402c-0.459,0.861-0.417,1.821-0.065,2.672C246.909,219.212,247.635,219.982,248.518,220.451z"
			/>
		<path fill="#FFFFFF" d="M252.877,198.147c0.1,0.276,0.505,0.777,1.037,1.223c3.007,2.549,5.933,5.093,8.906,7.656
			c0.843,0.725,1.483,1.292,1.987,1.675c0.505,0.382,0.874,0.711,1.114,0.964c0.46,0.496,0.452,0.779,0.175,1.484
			c-0.171,0.43-0.411,0.779-0.638,1.084c-0.107,0.141-0.215,0.281-0.328,0.369c-0.09,0.095-0.172,0.168-0.203,0.181
			c-0.339-0.735-1.092-1.687-1.973-2.64c-0.861-0.941-1.852-1.883-2.65-2.59l-0.088,0.227c-0.241,0.613-0.354,0.831-0.879,0.834
			c-0.033,0.013-0.184,0.005-0.471-0.003c-0.294,0.015-0.68-0.007-1.173-0.017l-3.483-0.011c-1.268,0.024-2.525,0.026-3.553,0.039
			c-0.34-0.003-0.808,0.05-1.174,0.114c-0.375,0.089-0.727,0.186-0.911,0.322c-0.062-0.312,0.004-0.812,0.183-1.266
			c0.262-0.658,0.396-0.999,0.764-1.141c0.104-0.062,0.355-0.094,0.713-0.139c0.75-0.044,1.842-0.084,3.11-0.109
			c0.646,0.02,1.304,0.016,1.958,0.014l3.701-0.01c-0.887-0.742-1.766-1.508-2.651-2.25l-2.66-2.23
			c-0.339-0.264-0.613-0.502-0.872-0.711c-0.482-0.373-0.796-0.707-0.834-1.141c-0.021-0.216,0.034-0.484,0.167-0.825
			C252.366,198.709,252.718,198.218,252.877,198.147z"/>
		<path fill="#FFFFFF" d="M264.803,195.31c-0.309,1.104-0.832,2.071-1.395,2.727c-0.564,0.653-1.147,1.021-1.617,0.891
			c-0.304-0.085-0.678-0.291-0.983-0.555c-0.308-0.262-0.523-0.576-0.538-0.885c1.429-0.41,2.281-1.463,2.596-2.592
			c0.31-1.104,0.216-2.042-0.746-2.311c-0.683-0.189-1.213,0.347-1.73,1.113c-0.241,0.413-0.507,0.82-0.762,1.28
			c-0.533,0.915-1.236,1.707-2.168,2.055c-0.455,0.177-1.011,0.173-1.646-0.004c-0.774-0.218-1.404-0.772-1.738-1.574
			c-0.338-0.778-0.419-1.763-0.125-2.819c0.191-0.682,0.533-1.548,0.926-2.224c0.414-0.67,0.912-1.089,1.472-1.008
			c0.305,0.084,0.919,0.332,1.274,1.142c-0.918,0.479-1.614,1.346-1.903,2.381c-0.255,0.915-0.128,1.812,0.695,2.041
			c0.823,0.229,1.261-0.254,1.704-1.02c0.229-0.365,0.453-0.81,0.709-1.27c0.492-0.95,1.404-2.039,2.443-2.229
			c0.53-0.081,1.081-0.055,1.62,0.098c1.034,0.287,1.634,1.037,1.895,1.92C265.062,193.382,265.045,194.439,264.803,195.31z"/>
		<path fill="#FFFFFF" d="M250.929,177.967c0.218-0.232,0.484-0.33,0.794-0.271c0.578,0.109,1.033,0.444,1.379,0.982
			c-0.369,0.251-1.152,0.848-1.346,1.879c-0.146,0.767-0.045,1.407,0.521,1.961c0.566,0.553,1.597,1.02,3.347,1.35l0.551,0.104
			l0.353-1.87c0.132-0.693,0.204-1.599,0.073-2.095c0.352-0.157,0.83-0.19,1.238-0.113c0.838,0.157,0.938,0.548,0.743,1.578
			c-0.04,0.218-0.091,0.481-0.173,0.788l-0.201,1.055l-0.189,1.006l4.34,0.819c1.723,0.325,3.24,0.315,4.17,0.117
			c0.17,0.156,0.14,0.972,0.01,1.667l-0.037,0.189c-0.156,0.69-0.322,1.058-0.994,0.929l-0.574-0.108
			c-0.336-0.062-0.717-0.16-1.137-0.287c-0.404-0.102-0.831-0.207-1.238-0.284l-8.029-1.517c-1.438-0.271-2.768-0.846-3.682-1.788
			c-0.891-0.938-1.336-2.262-1.004-4.013C250,179.207,250.273,178.416,250.929,177.967z"/>
		<path fill="#FFFFFF" d="M257.602,172.999c0.159-1.626,0.918-2.899,2.031-3.773c1.112-0.849,2.549-1.247,3.979-1.109
			c1.458,0.142,2.816,0.788,3.771,1.81c0.956,1.025,1.476,2.496,1.312,4.171c-0.152,1.579-0.913,2.854-2,3.703
			c-1.09,0.876-2.548,1.273-4.079,1.126c-1.456-0.142-2.785-0.834-3.715-1.88C257.973,176,257.448,174.578,257.602,172.999z
			 M266.635,173.874c0.102-1.043-0.237-1.86-0.863-2.485c-0.625-0.624-1.521-0.979-2.494-1.074c-1.092-0.107-2.021,0.146-2.688,0.67
			c-0.639,0.527-1.056,1.296-1.143,2.193c-0.089,0.898,0.177,1.708,0.754,2.329c0.576,0.644,1.492,1.05,2.584,1.155
			c0.875,0.084,1.773-0.097,2.507-0.565C266.022,175.629,266.533,174.917,266.635,173.874z"/>
		<path fill="#FFFFFF" d="M262.573,155.53l2.242-0.034c1.757-0.027,2.996-0.313,3.844-0.645c0.199,0.218,0.356,0.924,0.366,1.581
			c0.009,0.487-0.012,0.804-0.205,1.001c-0.191,0.199-0.555,0.279-1.239,0.288c-0.391,0.007-0.878-0.011-1.438-0.051
			c-0.562-0.017-1.124-0.031-1.637-0.023l-1.656,0.024c-2.122,0.031-2.843,0.726-2.828,1.699c0.015,0.952,0.766,2.16,1.659,3.244
			l3.316-0.051c0.681-0.011,1.436-0.119,2.117-0.252c0.68-0.131,1.263-0.311,1.65-0.488c0.198,0.218,0.355,0.972,0.366,1.629
			c0.009,0.585-0.06,0.928-0.277,1.102c-0.191,0.198-0.581,0.229-1.167,0.237c-0.314,0.005-0.707-0.015-1.122-0.056
			c-0.415-0.018-0.854-0.035-1.293-0.03l-3.047,0.047l-0.488,0.008c-0.585,0.032-1.363,0.094-2.142,0.203
			c-0.39,0.079-0.707,0.156-0.925,0.257c-0.198-0.265-0.329-0.896-0.336-1.359c-0.012-0.757,0.372-1.104,1.616-1.123
			c-1.171-1.641-1.654-2.9-1.67-3.974c-0.017-1.097,0.483-1.91,1.256-2.434C260.309,155.808,261.402,155.547,262.573,155.53z"/>
		<path fill="#FFFFFF" d="M265.23,144.955c0.358-0.312,0.805-0.484,1.193-0.529c1.09-0.122,1.477,0.472,1.598,1.537l0.06,0.532
			c0.048,1.495-0.542,2.37-1.391,2.907c-0.845,0.539-1.977,0.741-3.116,0.869l-3.828,0.435c0.03,0.267,0.08,0.703,0.176,1.11
			c0.096,0.406,0.237,0.808,0.357,0.99c-0.292,0.23-0.697,0.349-1.062,0.391c-0.484,0.055-0.759,0.013-0.913-0.266
			c-0.15-0.253-0.227-0.687-0.314-1.461l-0.062-0.558l-1.066,0.121c-0.46,0.052-0.991,0.137-1.471,0.239
			c-0.479,0.104-0.903,0.25-1.107,0.396c-0.199-0.248-0.379-0.744-0.443-1.3l-0.014-0.122c0.008-0.811,0.169-1.124,1.258-1.248
			c0.316-0.035,0.654-0.074,1.045-0.094c0.417-0.021,0.831-0.044,1.291-0.096l0.314-0.035l-0.126-1.116
			c-0.087-0.776-0.262-1.664-0.515-1.954c0.246-0.199,0.646-0.344,1.035-0.387c0.85-0.097,1.059,0.027,1.154,0.873l0.052,0.463
			c0.024,0.219,0.054,0.459,0.055,0.704l0.091,0.8l0.049,0.412l4.071-0.459c1.478-0.17,2.441-0.549,2.298-1.809
			C265.831,145.697,265.479,145.195,265.23,144.955z"/>
		<path fill="#FFFFFF" d="M265.116,138.506c0.888-0.159,1.715,0.435,1.87,1.298c0.154,0.864-0.412,1.708-1.299,1.87
			c-0.864,0.154-1.715-0.437-1.869-1.3C263.663,139.511,264.253,138.66,265.116,138.506z"/>
		<path fill="#FFFFFF" d="M262.654,127.055c0.45-0.115,0.984,0.201,1.458,0.785c0.477,0.584,0.938,1.398,1.16,2.272
			c0.386,1.515,0.175,2.953-0.531,4.138c-0.704,1.188-1.883,2.092-3.466,2.496c-1.395,0.355-2.898,0.187-4.18-0.496
			c-1.253-0.661-2.245-1.793-2.648-3.376c-0.164-0.64-0.238-1.524-0.159-2.301c0.103-0.782,0.37-1.405,0.915-1.543
			c0.449-0.114,1.125-0.034,1.67,0.43c-0.616,0.737-0.938,1.75-0.655,2.862c0.218,0.849,0.754,1.568,1.536,1.973
			c0.789,0.431,1.783,0.579,2.92,0.289c0.873-0.223,1.646-0.748,2.139-1.477c0.494-0.73,0.68-1.684,0.413-2.725
			c-0.282-1.111-1.09-1.61-1.961-1.967c0.094-0.428,0.363-0.748,0.636-0.968C262.171,127.229,262.465,127.104,262.654,127.055z"/>
		<path fill="#FFFFFF" d="M251.109,122.516c-0.567-1.533-0.439-3.012,0.183-4.281c0.628-1.248,1.747-2.235,3.095-2.735
			c1.373-0.508,2.877-0.52,4.184-0.015c1.304,0.503,2.414,1.602,2.998,3.179c0.553,1.487,0.424,2.965-0.184,4.206
			c-0.598,1.262-1.738,2.256-3.179,2.79c-1.372,0.509-2.872,0.466-4.161-0.07C252.753,125.054,251.66,124.003,251.109,122.516z
			 M259.616,119.361c-0.364-0.982-1.024-1.57-1.859-1.858c-0.836-0.289-1.798-0.219-2.712,0.12
			c-1.029,0.381-1.756,1.016-2.125,1.775c-0.346,0.753-0.386,1.625-0.072,2.473c0.314,0.846,0.904,1.459,1.694,1.764
			c0.798,0.329,1.801,0.297,2.828-0.086c0.825-0.304,1.555-0.862,2.008-1.602C259.832,121.207,259.98,120.346,259.616,119.361z"/>
		<path fill="#FFFFFF" d="M246.689,98.037c1.563-0.85,2.529-1.623,3.129-2.362c0.298,0.087,0.762,0.638,1.075,1.218
			c0.547,1.008,0.437,1.262-0.399,1.715c-0.365,0.197-0.85,0.432-1.405,0.681c-0.56,0.246-1.108,0.516-1.622,0.796l-1.222,0.661
			c-1.821,0.991-2.32,2.065-1.866,2.899c0.452,0.836,1.574,1.421,2.82,1.826c0.309-0.25,0.726-0.506,1.133-0.726l1.586-0.86
			c1.543-0.838,2.473-1.676,3.094-2.373c0.301,0.144,0.776,0.662,1.09,1.24c0.5,0.922,0.418,1.131-0.209,1.556l-0.664,0.362
			c-0.408,0.22-0.827,0.419-1.3,0.619c-0.453,0.19-0.894,0.402-1.289,0.644l-1.241,0.675c-0.965,0.523-1.58,1.023-1.837,1.521
			c-0.257,0.502-0.262,0.949-0.042,1.355c0.452,0.836,1.664,1.483,2.787,1.761l2.699-1.465c1.543-0.836,2.516-1.753,3.091-2.48
			c0.297,0.087,0.786,0.683,1.113,1.282c0.5,0.922,0.542,1.203-0.229,1.623c-0.365,0.196-0.805,0.407-1.321,0.633
			c-0.504,0.244-1.011,0.492-1.543,0.782l-2.399,1.302l-0.516,0.279c-0.523,0.312-1.229,0.75-1.807,1.174
			c-0.274,0.205-0.454,0.386-0.557,0.553c-0.279-0.155-0.582-0.46-0.791-0.791l-0.174-0.322c-0.059-0.107-0.084-0.205-0.097-0.28
			c0.012,0.021,0.031-0.044,0.059-0.145c0.081-0.21,0.246-0.521,0.519-0.835c0.137-0.157,0.298-0.271,0.489-0.376
			c-1.749-0.716-2.679-1.515-3.181-2.435c-0.568-1.05-0.42-2.158,0.385-3.178c-1.876-0.646-2.954-1.559-3.521-2.609
			c-0.977-1.799,0.071-3.7,2.621-5.084L246.689,98.037z"/>
	</g>
</g>
</svg>
