<?xml version="1.0" encoding="utf-8"?>
<!-- Generator: Adobe Illustrator 16.0.4, SVG Export Plug-In . SVG Version: 6.00 Build 0)  -->
<!DOCTYPE svg PUBLIC "-//W3C//DTD SVG 1.1//EN" "http://www.w3.org/Graphics/SVG/1.1/DTD/svg11.dtd">
<svg version="1.1" id="Layer_1" xmlns="http://www.w3.org/2000/svg" xmlns:xlink="http://www.w3.org/1999/xlink" x="0px" y="0px"
	 width="282.46px" height="283.46px" viewBox="0 0 282.46 283.46" enable-background="new 0 0 282.46 283.46" xml:space="preserve">
<rect x="-0.54" fill="#442E75" width="283" height="283"/>
<g>
	<g>
		<path fill="#FFFFFF" d="M58.038,245.542c0-8.14,7.891-23.674,14.058-40.69l41.431-112.456c1.727-6.165,3.947-12.084-0.741-18.497
			c6.659-2.958,14.551-4.931,24.169-4.931s22.195,0.986,25.154,8.137c0.742,1.48,4.933,11.838,6.413,15.537l39.704,106.535
			c6.659,18.004,16.523,36.254,26.881,44.886c-1.727,3.206-6.167,5.919-11.591,7.89c-5.426,1.974-12.331,2.961-18.25,2.961
			c-6.657,0-13.07-1.234-15.537-4.191c-2.713-2.714-3.945-6.167-7.891-19.238c-1.727-5.424-8.386-26.632-10.852-34.032h-61.407
			l-3.944,9.866c-3.701,9.616-5.674,18.248-5.674,26.387c0,6.167,0.987,11.343,2.961,15.538c-3.947,3.696-14.551,5.671-25.156,5.671
			C71.847,254.913,58.038,253.679,58.038,245.542z M160.136,167.611l-19.729-51.541l-19.73,51.541H160.136z"/>
	</g>
	<g>
		<path fill="#FFFFFF" d="M24.003,178.848c2.23-0.486,4.561-1.229,6.041-2.26c0.27,0.15,0.657,1.09,0.854,1.99l0.082,0.377
			c0.225,1.026-0.071,1.354-0.947,1.545c-0.679,0.146-1.691,0.315-2.741,0.439c-1.043,0.148-2.129,0.332-3.007,0.524l-7.639,1.664
			l-0.852,0.187c-0.27,0.082-0.472,0.127-0.646,0.166l1.938,8.892c0.229-0.023,0.506-0.083,0.78-0.144l0.927-0.202l7.391-1.609
			c1.176-0.257,2.387-0.601,3.486-0.972c1.102-0.371,2.125-0.855,2.88-1.361c0.371,0.26,0.659,1.091,0.832,1.891
			c0.257,1.179,0.281,1.778-0.896,2.035c-0.327,0.07-0.707,0.127-1.163,0.198c-0.433,0.069-0.919,0.122-1.427,0.206
			c-0.479,0.08-0.992,0.138-1.499,0.223c-0.48,0.077-0.938,0.15-1.364,0.243l-8.41,1.857c-0.175,0.038-0.675,0.148-1.265,0.329
			c-0.565,0.176-1.138,0.432-1.427,0.678c-0.316-0.377-0.527-0.856-0.643-1.382l-2.57-11.797c-0.115-0.524-0.145-1.148-0.023-1.675
			c0.34,0.112,0.932,0.061,1.499,0.016s1.094-0.16,1.32-0.208L24.003,178.848z"/>
		<path fill="#FFFFFF" d="M18.457,169.567c-0.129-1.713,0.428-3.168,1.424-4.273c0.998-1.079,2.412-1.752,3.92-1.867
			c1.535-0.118,3.059,0.309,4.23,1.194c1.174,0.889,1.977,2.317,2.111,4.083c0.126,1.66-0.432,3.118-1.404,4.194
			c-0.969,1.102-2.408,1.777-4.018,1.9c-1.535,0.113-3.037-0.361-4.187-1.275C19.385,172.607,18.584,171.229,18.457,169.567z
			 M27.967,168.842c-0.085-1.098-0.579-1.884-1.341-2.416c-0.761-0.533-1.753-0.741-2.775-0.663c-1.152,0.086-2.07,0.52-2.661,1.18
			c-0.567,0.661-0.862,1.53-0.789,2.477c0.071,0.945,0.492,1.737,1.202,2.273c0.711,0.563,1.732,0.82,2.884,0.732
			c0.922-0.07,1.82-0.421,2.493-1.038C27.651,170.77,28.05,169.941,27.967,168.842z"/>
		<path fill="#FFFFFF" d="M18.804,150.661c0.402,0.218,1.193,0.348,1.909,0.422c0.742,0.075,1.433,0.124,1.612,0.13
			c1.461,0.047,2.949,0.096,4.41,0.168c1.458,0.075,2.919,0.122,4.38,0.17c1.255,0.041,2.575,0.444,3.574,1.322
			c0.996,0.881,1.673,2.21,1.609,4.132c-0.036,1.103-0.323,2.069-0.706,2.748c-0.383,0.705-0.881,1.101-1.42,1.084
			c-0.41-0.015-0.842-0.131-1.249-0.324c-0.376-0.19-0.676-0.457-0.796-0.77c1.332-0.651,1.959-1.761,1.998-3.014
			c0.06-1.743-1.184-2.99-3.953-3.08l-1.718-0.058c0.595,0.662,1.234,1.504,1.185,3.043c-0.104,3.15-2.286,4.823-5.643,4.714
			c-1.464-0.048-2.908-0.58-3.956-1.463c-1.048-0.882-1.699-2.133-1.652-3.671c0.031-0.897,0.206-1.507,0.478-1.985
			c0.272-0.479,0.64-0.75,0.983-1.021c-1.204-0.038-1.442-0.636-1.423-1.252C18.444,151.443,18.615,150.938,18.804,150.661z
			 M23.943,159.037c0.846,0.029,1.727-0.198,2.357-0.69c0.659-0.467,1.117-1.17,1.148-2.169c0.021-0.614-0.165-1.185-0.457-1.657
			c-0.267-0.471-0.643-0.792-0.97-0.98l-4.308-0.141c-0.205,0.095-0.547,0.314-0.868,0.688c-0.294,0.401-0.543,0.932-0.569,1.727
			c-0.032,0.948,0.379,1.758,1.053,2.291C22.031,158.667,22.944,159.006,23.943,159.037z"/>
		<path fill="#FFFFFF" d="M29.05,139.185c0.604-0.404,1.105-0.853,1.367-1.229c0.656,0.299,0.959,1.275,0.861,1.962
			c-0.073,0.508-0.175,0.676-0.8,1.052c-0.31,0.189-0.765,0.461-1.41,0.812c-0.646,0.348-1.526,0.895-2.66,1.589
			c0.297,0.275,0.587,0.602,0.925,0.961c0.648,0.713,1.311,1.352,1.864,1.82c0.305,0.226,0.546,0.362,0.749,0.392
			c0.126,0.021,0.205,0.005,0.29-0.034c0.109,0.505,0.069,0.966-0.008,1.501c-0.098,0.684-0.395,1.315-0.776,1.261
			c-0.381-0.055-1.18-0.815-2.078-1.773c-0.424-0.473-0.896-0.983-1.361-1.54c-0.468-0.533-0.916-1.011-1.299-1.43
			c-1.092,0.569-2.11,1.177-3.154,1.779c-0.422,0.226-0.902,0.494-1.33,0.769c-0.427,0.277-0.751,0.54-0.865,0.811
			c-0.32-0.486-0.386-1.117-0.316-1.601c0.055-0.381,0.129-0.915,0.352-1.194c0.221-0.277,0.845-0.656,1.605-1.093l2.459-1.255
			c-0.45-0.479-1.08-1.139-1.646-1.712c-0.566-0.573-1.152-1.02-1.559-1.077l-0.128-0.018c-0.061-0.295-0.041-0.785,0.027-1.268
			l0.023-0.178c0.081-0.377,0.222-1.004,0.654-0.943c0.15,0.022,0.365,0.156,0.672,0.381c0.305,0.225,0.762,0.654,1.328,1.227
			l2.301,2.402C26.124,140.997,27.768,140.013,29.05,139.185z"/>
		<path fill="#FFFFFF" d="M22.058,128.508c0.43-1.663,1.428-2.86,2.729-3.585c1.291-0.699,2.849-0.879,4.311-0.5
			c1.49,0.386,2.796,1.279,3.619,2.498c0.822,1.219,1.121,2.832,0.677,4.544c-0.415,1.613-1.414,2.812-2.684,3.517
			c-1.272,0.729-2.853,0.902-4.417,0.499c-1.488-0.386-2.756-1.323-3.549-2.56C21.951,131.684,21.642,130.12,22.058,128.508z
			 M31.292,130.896c0.274-1.068,0.059-1.971-0.489-2.723c-0.546-0.75-1.418-1.267-2.412-1.523c-1.115-0.289-2.125-0.18-2.898,0.257
			c-0.751,0.441-1.31,1.171-1.547,2.089c-0.236,0.918-0.094,1.803,0.402,2.54c0.492,0.762,1.378,1.336,2.492,1.624
			c0.895,0.231,1.858,0.188,2.693-0.179C30.371,132.616,31.014,131.962,31.292,130.896z"/>
		<path fill="#FFFFFF" d="M28.526,110.722c0.312,0.338,1.019,0.717,1.671,1.021c0.677,0.313,1.313,0.585,1.481,0.647
			c1.366,0.521,2.757,1.051,4.114,1.598c1.357,0.544,2.721,1.066,4.088,1.586c1.174,0.449,2.291,1.259,2.949,2.418
			c0.657,1.153,0.861,2.633,0.177,4.43c-0.392,1.029-0.981,1.85-1.563,2.368c-0.59,0.544-1.193,0.754-1.695,0.562
			c-0.385-0.146-0.756-0.397-1.074-0.711c-0.296-0.305-0.492-0.655-0.503-0.988c1.469-0.18,2.423-1.023,2.871-2.199
			c0.622-1.629-0.147-3.213-2.734-4.199l-1.605-0.613c0.347,0.818,0.677,1.822,0.128,3.262c-1.124,2.946-3.736,3.817-6.874,2.619
			c-1.367-0.521-2.558-1.496-3.265-2.672c-0.704-1.176-0.911-2.571-0.361-4.01c0.318-0.839,0.682-1.358,1.095-1.723
			c0.414-0.363,0.851-0.5,1.262-0.645c-1.126-0.432-1.155-1.072-0.937-1.647C27.935,111.345,28.259,110.922,28.526,110.722z
			 M30.658,120.319c0.791,0.302,1.697,0.372,2.455,0.113c0.773-0.229,1.437-0.742,1.795-1.678c0.217-0.576,0.227-1.176,0.103-1.716
			c-0.097-0.532-0.348-0.958-0.595-1.243l-4.027-1.537c-0.227,0.022-0.621,0.12-1.046,0.369c-0.409,0.283-0.819,0.704-1.099,1.447
			c-0.34,0.887-0.215,1.784,0.247,2.512C28.97,119.345,29.722,119.961,30.658,120.319z"/>
		<path fill="#FFFFFF" d="M36.384,100.927l3.563,1.815c1.647,0.837,2.78,1.212,3.754,1.276c0.091,0.275-0.074,0.939-0.354,1.489
			c-0.268,0.526-0.485,0.788-0.797,0.832c-0.311,0.043-0.688-0.12-1.328-0.445l-2.149-1.094c-0.105,0.378-0.258,0.79-0.583,1.431
			c0.191,0.355,0.375,0.736,0.543,1.082c0.329,0.714,0.688,1.472,0.996,1.944c0.295,0.495,0.465,0.841,0.485,1.254
			c0.008,0.206-0.039,0.47-0.145,0.733l-0.245,0.48c-0.336,0.492-0.728,0.982-1.268,0.966l-0.222-1.091
			c-0.078-0.357-0.223-0.805-0.449-1.323c-0.18-0.38-0.339-0.747-0.507-1.149L37.159,108c-0.483,0.444-1.129,0.806-1.819,0.973
			c-0.689,0.168-1.445,0.128-2.247-0.278c-1.188-0.605-1.755-1.585-1.862-2.675c-0.107-1.093,0.233-2.328,0.827-3.493
			c0.687-1.35,1.521-2.422,2.247-3.002c0.135,0.184,0.444,0.428,0.834,0.683C35.525,100.464,35.995,100.729,36.384,100.927z
			 M33.599,103.454c-0.279,0.549-0.49,1.189-0.447,1.787c0.041,0.598,0.312,1.138,0.953,1.465c1.097,0.559,2.26,0.025,3.003-1.438
			c0.212-0.412,0.362-0.824,0.437-1.246l-3.226-1.643C34.041,102.7,33.798,103.066,33.599,103.454z"/>
		<path fill="#FFFFFF" d="M53.017,86.448c1.31,0.811,2.59,1.665,3.854,2.54c0.465,0.323,0.809,0.591,1.011,0.794
			c0.411,0.441,0.434,0.769,0.218,1.084c-0.084,0.162-0.214,0.353-0.344,0.543c-0.338,0.485-0.727,0.868-1.057,0.985
			c-0.31-0.683-0.945-1.341-1.768-1.91l-1.393-0.962l-5.966,8.623c-1.095,1.581-2.237,2.101-3.353,2.14
			c-1.119,0.036-2.147-0.457-2.991-1.042l-0.169-0.115c-0.396-0.242-0.838-0.55-1.299-0.963c-0.479-0.392-0.927-0.734-1.349-1.025
			l-0.315-0.219c-0.739-0.512-1.599-0.982-2.193-1.021c0.013-0.334,0.143-0.837,0.478-1.321c0.453-0.653,0.741-0.891,1.622-0.405
			c0.086-0.035,0.184,0.003,0.334,0.104c0.567,0.394,0.98,0.743,1.506,1.2c0.547,0.472,1.171,0.967,2.035,1.565
			c0.76,0.526,1.437,0.899,2.066,0.933c0.62,0.055,1.244-0.262,1.843-1.128l1.066-1.539l-1.243-0.862l-0.805-0.553
			c-0.245-0.14-0.498-0.315-0.73-0.476l-1.771-1.226c-0.359-0.248-0.907-0.627-1.457-0.915c-0.549-0.288-1.049-0.508-1.355-0.563
			c0.006-0.37,0.244-0.894,0.549-1.335c0.57-0.824,0.947-0.872,1.855-0.246c0.273,0.19,0.598,0.445,0.961,0.729
			c0.364,0.283,0.771,0.596,1.216,0.902l2.003,1.387c0.781,0.54,1.478,0.93,2.121,1.217l2.333-3.372l-0.633-0.438
			c-0.247-0.141-0.457-0.286-0.668-0.433l-3.246-2.247c-0.358-0.249-0.907-0.628-1.441-0.935c-0.536-0.311-1.073-0.525-1.376-0.58
			c0.012-0.334,0.24-0.892,0.548-1.334c0.583-0.844,0.989-0.844,1.938-0.187c0.274,0.188,0.612,0.422,0.957,0.691
			c0.363,0.282,0.75,0.582,1.151,0.859l2.191,1.519c0.759,0.525,1.33,0.828,1.958,1.137L53.017,86.448z"/>
		<path fill="#FFFFFF" d="M51.164,75.132c1.163-1.262,2.609-1.85,4.096-1.874c1.47-0.005,2.926,0.57,4.036,1.594
			c1.132,1.042,1.86,2.445,2.012,3.909c0.149,1.461-0.348,3.023-1.547,4.324c-1.129,1.225-2.571,1.81-4.023,1.833
			c-1.465,0.042-2.942-0.551-4.13-1.644c-1.132-1.041-1.808-2.466-1.921-3.93C49.572,77.88,50.035,76.355,51.164,75.132z
			 M58.177,81.59c0.744-0.812,0.979-1.71,0.853-2.629c-0.13-0.918-0.655-1.786-1.409-2.481c-0.845-0.78-1.786-1.159-2.674-1.141
			c-0.87,0.036-1.707,0.415-2.351,1.111c-0.644,0.698-0.935,1.545-0.843,2.429c0.073,0.903,0.582,1.827,1.432,2.606
			c0.678,0.625,1.549,1.043,2.457,1.116C56.553,82.672,57.429,82.401,58.177,81.59z"/>
		<path fill="#FFFFFF" d="M72.502,66.901c1.812-0.64,3.748-0.042,4.999,1.552c0.934,1.188,1.457,2.603,1.396,4.02
			c-0.061,1.418-0.742,2.833-2.254,4.02c-0.907,0.712-1.957,1.243-2.891,1.423c-0.921,0.201-1.743,0.064-2.188-0.5
			c-0.489-0.625-0.711-1.527-0.259-2.24c0.379,0.191,0.934,0.439,1.609,0.431c0.673,0.027,1.444-0.155,2.311-0.836
			c1.533-1.202,1.871-3.098,0.539-4.792c-0.521-0.664-1.306-1.123-2.151-1.244c-0.827-0.1-1.71,0.104-2.498,0.721
			c-0.524,0.412-0.949,0.909-1.236,1.496c-0.46-0.13-0.812-0.408-1.05-0.712c-0.645-0.825-0.292-1.203,0.495-1.82
			c0.646-0.507,1.24-1.202,1.446-2.017c0.226-0.796,0.112-1.686-0.599-2.593c-0.951-1.21-2.327-1.302-3.455-0.415
			c-0.949,0.743-1.322,1.72-1.354,3.051c-0.765-0.02-1.264-0.28-1.562-0.663c-0.445-0.565-0.242-1.345,0.213-2.094
			c0.456-0.747,1.159-1.43,1.705-1.856c0.966-0.761,2.096-1.19,3.203-1.15c1.109,0.043,2.203,0.522,3.072,1.632
			C73.073,63.684,73.138,65.262,72.502,66.901z"/>
		<path fill="#FFFFFF" d="M84.094,58.659c0.837,1.321,1.414,1.896,2.122,2.389c-0.042,0.269-0.5,0.741-1.042,1.085
			c-0.431,0.274-0.697,0.383-0.96,0.306c-0.281-0.063-0.483-0.33-0.862-0.787c-0.438,1.369-1.213,2.348-2.233,2.993
			c-1.84,1.168-3.854,0.715-4.968-1.038c-0.603-0.951-0.694-1.957-0.375-2.888c0.319-0.933,0.986-1.749,2.001-2.395
			c0.845-0.535,1.745-0.983,2.685-1.367l-0.138-0.219c-0.824-1.298-2.031-1.716-3.652-0.687c-1.192,0.756-1.669,1.727-1.904,2.695
			c-0.599,0.015-1.124-0.381-1.384-0.791c-0.385-0.608-0.033-1.347,0.522-2.003c0.555-0.655,1.374-1.234,1.892-1.563
			c1.581-1.003,2.884-1.193,3.974-0.82c1.099,0.395,1.995,1.375,2.818,2.674l0.565,0.887C83.361,57.456,83.689,57.976,84.094,58.659
			z M79.195,59.552c-0.522,0.328-0.963,0.73-1.213,1.194c-0.254,0.465-0.254,1.04,0.091,1.582c0.602,0.952,1.534,0.938,2.379,0.402
			c0.801-0.508,1.498-1.468,1.819-2.731c-0.309-0.534-0.574-1.003-0.905-1.521C80.686,58.696,79.863,59.126,79.195,59.552z"/>
		<path fill="#FFFFFF" d="M99.065,43.181c-0.026,0.457,0.189,1.229,0.424,1.91c0.245,0.703,0.491,1.348,0.562,1.516
			c0.571,1.344,1.155,2.713,1.703,4.064c0.549,1.355,1.121,2.701,1.692,4.045c0.494,1.155,0.685,2.522,0.309,3.797
			c-0.376,1.275-1.298,2.447-3.067,3.199c-1.015,0.433-2.012,0.578-2.789,0.52c-0.8-0.049-1.367-0.337-1.578-0.833
			c-0.163-0.376-0.238-0.819-0.233-1.266c0.015-0.423,0.13-0.806,0.362-1.046c1.149,0.934,2.417,1.031,3.574,0.542
			c1.603-0.684,2.209-2.335,1.125-4.882l-0.672-1.58c-0.351,0.817-0.843,1.752-2.258,2.354c-2.9,1.234-5.337-0.04-6.654-3.129
			c-0.572-1.344-0.695-2.879-0.338-4.203c0.354-1.32,1.216-2.439,2.631-3.043c0.826-0.35,1.452-0.449,2.001-0.404
			c0.549,0.045,0.948,0.266,1.338,0.461c-0.471-1.109-0.03-1.574,0.537-1.816C98.206,43.185,98.737,43.126,99.065,43.181z
			 M93.638,51.37c0.331,0.777,0.909,1.479,1.621,1.844c0.701,0.399,1.531,0.52,2.452,0.127c0.562-0.24,1.001-0.65,1.306-1.113
			c0.314-0.441,0.447-0.914,0.482-1.291l-1.686-3.963c-0.175-0.148-0.517-0.365-0.992-0.496c-0.487-0.1-1.072-0.102-1.804,0.209
			c-0.874,0.373-1.434,1.084-1.634,1.924C93.168,49.479,93.246,50.45,93.638,51.37z"/>
		<path fill="#FFFFFF" d="M113.022,42.581l1.123,3.842c0.413,1.375,0.95,2.098,1.434,2.73c-0.163,0.262-0.808,0.615-1.397,0.793
			c-0.957,0.285-1.281,0.195-1.478-0.469l-0.111-0.369c-0.043-0.146-0.096-0.318-0.123-0.498c-0.098,1.02-1.024,2.207-2.574,2.67
			c-1.647,0.494-2.855,0.213-3.798-0.523c-0.943-0.734-1.55-1.865-1.953-3.217c-0.227-0.762-0.417-1.482-0.527-2.121
			c-0.109-0.633-0.238-1.158-0.351-1.527l-0.198-0.662c-0.177-0.59-0.409-0.922-0.656-1.303c0.168-0.238,0.763-0.576,1.255-0.723
			c0.86-0.258,1.272-0.141,1.556,0.818c0.083,0.271,0.154,0.598,0.226,0.924c0.099,0.693,0.239,1.428,0.387,2.188
			c0.06,0.383,0.147,0.758,0.25,1.102c0.264,0.887,0.659,1.758,1.249,2.303c0.592,0.547,1.365,0.799,2.445,0.475
			c0.787-0.234,1.281-0.812,1.545-1.453c0.263-0.641,0.312-1.379,0.232-1.918c-0.295-0.98-0.557-1.945-0.826-2.938l-0.075-0.244
			c-0.125-0.42-0.296-0.984-0.499-1.486c-0.203-0.5-0.448-0.963-0.613-1.154c0.163-0.264,0.684-0.58,1.25-0.75
			c0.883-0.264,1.279-0.113,1.601,0.969c0.125,0.418,0.22,0.818,0.32,1.244L113.022,42.581z"/>
		<path fill="#FFFFFF" d="M126.532,45.776c0.09,0.479-0.278,1.018-0.923,1.477s-1.529,0.887-2.46,1.061
			c-1.614,0.301-3.108-0.02-4.305-0.836c-1.195-0.82-2.065-2.117-2.381-3.807c-0.279-1.486,0.002-3.053,0.802-4.35
			c0.781-1.268,2.034-2.232,3.721-2.549c0.681-0.129,1.617-0.146,2.424-0.012c0.812,0.162,1.448,0.486,1.556,1.066
			c0.091,0.48-0.041,1.18-0.566,1.723c-0.73-0.699-1.771-1.104-2.955-0.881c-0.907,0.17-1.696,0.684-2.174,1.479
			c-0.504,0.797-0.728,1.83-0.5,3.037c0.173,0.936,0.67,1.781,1.401,2.348c0.734,0.566,1.722,0.824,2.831,0.617
			c1.184-0.223,1.763-1.035,2.195-1.924c0.442,0.127,0.76,0.432,0.973,0.732C126.384,45.257,126.496,45.575,126.532,45.776z"/>
		<path fill="#FFFFFF" d="M134.69,37.153l1.113,2.479c0.738,1.736,1.496,3.346,2.218,4.596c0.362,0.639,0.739,1.121,1.099,1.426
			c-0.274,0.408-0.998,0.65-1.635,0.705c-0.538,0.045-1.008-0.016-1.148-0.186c-0.086-0.096-0.245-0.441-0.499-1.012
			c-0.535-1.137-1.27-2.824-2.045-4.662c-0.413-0.918-0.767-1.762-1.115-2.529c-0.301,1.027-0.575,2.029-0.874,3.033l-0.9,3.035
			c-0.225,0.662-0.345,1.367-0.298,1.955c0.02,0.205,0.086,0.379,0.177,0.551c-0.266,0.203-0.875,0.307-1.461,0.355
			c-0.459,0.039-0.77,0.041-0.954-0.021c-0.187-0.061-0.298-0.18-0.316-0.359c-0.026-0.33,0.086-0.83,0.317-1.439
			c0.229-0.613,0.431-1.273,0.651-2.012c0.298-1.004,0.575-2.006,0.877-2.982c0.303-0.979,0.577-1.979,0.876-2.984
			c0.018-0.104,0.059-0.236,0.121-0.395c0.038-0.158,0.051-0.314,0.038-0.469c-0.012-0.152-0.077-0.301-0.19-0.418
			c0.392-0.238,0.948-0.361,1.458-0.406c0.741-0.062,1.202-0.076,1.558,0.15C134.086,35.79,134.332,36.257,134.69,37.153z"/>
		<path fill="#FFFFFF" d="M140.054,40.71c0.032-2.18,0.771-3.682,1.812-4.613c1.038-0.91,2.351-1.275,3.581-1.256
			c2.999,0.045,4.561,2.041,4.512,5.297c-0.007,0.488-0.039,0.924-0.124,1.461l-7.537-0.113c0.154,1.852,1.317,2.842,3.266,2.871
			c1.103,0.016,2.182-0.199,2.838-1.215c0.507,0.314,0.809,0.984,0.8,1.574c-0.012,0.617-0.428,1.07-1.124,1.369
			c-0.696,0.297-1.622,0.412-2.57,0.396c-1.615-0.023-2.99-0.605-3.951-1.596C140.595,43.897,140.027,42.478,140.054,40.71z
			 M145.318,36.735c-1.718-0.025-2.762,1.191-2.967,2.932l5.562,0.082l0.003-0.205C147.939,37.929,146.959,36.761,145.318,36.735z"
			/>
		<path fill="#FFFFFF" d="M160.501,45.019c0.312,0.422,0.634,0.77,0.938,1.037c0.305,0.27,0.61,0.512,0.896,0.75
			c-0.278,0.381-1.171,0.717-2.062,0.611c-0.507-0.059-0.863-0.127-1.304-0.539c-0.444-0.412-1.005-1.15-1.857-2.67
			c-0.422-0.59-0.816-1.18-1.142-1.734c-0.346-0.559-0.609-0.975-0.787-1.229l-0.106,0.943c-0.215,1.834-0.05,3.273,0.141,4.303
			c-0.201,0.184-0.956,0.225-1.668,0.141l-0.254-0.029c-0.944-0.109-1.062-0.434-1.004-0.918c0.056-0.484,0.145-1.016,0.267-1.648
			c0.101-0.633,0.195-1.215,0.262-1.775l1.206-10.32c0.052-0.432,0.117-1.225,0.147-1.943c0.033-0.72-0.018-1.371-0.115-1.668
			c0.25-0.15,0.882-0.231,1.468-0.162c0.406,0.047,0.732,0.137,0.937,0.367c0.178,0.254,0.229,0.699,0.146,1.412
			c-0.047,0.406-0.13,0.889-0.218,1.42c-0.091,0.559-0.179,1.09-0.235,1.574l-0.828,7.082l3.768-2.633
			c0.367-0.268,0.663-0.801,0.7-1.133c0.291-0.043,0.674-0.023,1.083,0.023c0.203,0.023,0.534,0.062,0.832,0.176
			c0.268,0.135,0.483,0.287,0.447,0.596c-0.049,0.406-0.823,1.064-1.784,1.777c-0.481,0.357-1.012,0.709-1.547,1.086
			c-0.535,0.379-1.011,0.684-1.405,0.973c0.516,0.68,1.031,1.359,1.542,2.039L160.501,45.019z"/>
		<path fill="#FFFFFF" d="M172.618,48.351c-0.103,0.475-0.653,0.826-1.425,1c-0.772,0.172-1.755,0.219-2.683,0.016
			c-1.602-0.35-2.852-1.227-3.635-2.447c-0.782-1.221-1.077-2.756-0.709-4.434c0.324-1.477,1.192-2.809,2.435-3.691
			c1.212-0.863,2.741-1.264,4.421-0.896c0.674,0.148,1.547,0.496,2.235,0.936c0.687,0.465,1.143,1.012,1.017,1.588
			c-0.104,0.475-0.494,1.072-1.189,1.365c-0.401-0.926-1.203-1.705-2.379-1.963c-0.902-0.197-1.83-0.033-2.58,0.512
			c-0.774,0.539-1.382,1.402-1.644,2.604c-0.202,0.928-0.074,1.902,0.378,2.709c0.452,0.809,1.259,1.43,2.36,1.67
			c1.179,0.258,2.028-0.266,2.777-0.914c0.353,0.287,0.529,0.691,0.605,1.051C172.684,47.813,172.663,48.149,172.618,48.351z"/>
		<path fill="#FFFFFF" d="M185.986,46.546l-1.285,3.787c-0.455,1.363-0.428,2.262-0.398,3.057c-0.283,0.121-1.012,0.04-1.598-0.154
			c-0.948-0.314-1.157-0.574-0.939-1.23l0.121-0.363c0.047-0.146,0.105-0.316,0.186-0.48c-0.664,0.777-2.105,1.219-3.642,0.707
			c-1.628-0.541-2.454-1.465-2.805-2.605c-0.351-1.145-0.196-2.418,0.248-3.756c0.253-0.754,0.51-1.451,0.785-2.035
			c0.276-0.584,0.47-1.088,0.591-1.453l0.218-0.654c0.195-0.586,0.195-0.99,0.212-1.445c0.274-0.096,0.954-0.033,1.439,0.129
			c0.852,0.283,1.121,0.617,0.805,1.564c-0.088,0.268-0.217,0.574-0.347,0.885c-0.315,0.625-0.622,1.305-0.94,2.012
			c-0.17,0.348-0.315,0.705-0.427,1.045c-0.292,0.877-0.472,1.816-0.3,2.602c0.174,0.787,0.659,1.436,1.729,1.791
			c0.776,0.26,1.517,0.072,2.101-0.301c0.582-0.373,1.045-0.949,1.29-1.438c0.32-0.973,0.659-1.914,1.01-2.879l0.079-0.242
			c0.139-0.414,0.325-0.973,0.445-1.5c0.121-0.527,0.186-1.047,0.162-1.297c0.282-0.121,0.893-0.082,1.452,0.105
			c0.872,0.289,1.108,0.639,0.751,1.709c-0.135,0.412-0.288,0.795-0.451,1.201L185.986,46.546z"/>
		<path fill="#FFFFFF" d="M198.179,57.513c-0.271,0.64-0.544,1.277-0.826,1.881c-0.282,0.605-0.554,1.242-0.821,1.88l-0.101,0.208
			c-0.257,0.557-0.487,0.988-0.653,1.279c-0.387,0.583-0.705,0.719-1.073,0.6c-0.173-0.052-0.417-0.138-0.695-0.268
			c-0.487-0.229-0.945-0.585-1.112-0.89c0.642-0.464,1.173-1.234,1.576-2.093l0.727-1.557l-4.412-2.065
			c-1.88-0.883-2.599-2.011-2.74-3.155c-0.147-1.143,0.297-2.266,0.766-3.266l0.086-0.186c0.152-0.324,0.282-0.604,0.424-0.85
			c0.132-0.219,0.241-0.453,0.374-0.674c0.099-0.209,0.206-0.441,0.339-0.662s0.254-0.477,0.383-0.756
			c0.38-0.811,0.69-1.771,0.615-2.344c0.346-0.066,0.932,0.068,1.466,0.318c0.906,0.424,1.018,0.789,0.573,1.742
			c-0.293,0.625-0.668,1.299-1.096,2.033c-0.438,0.756-0.866,1.549-1.249,2.361c-0.345,0.742-0.536,1.391-0.406,1.961
			c0.126,0.569,0.565,1.086,1.517,1.533l2.486,1.162c0.086-0.242,0.195-0.475,0.315-0.73l0.347-0.743l1.577-3.366
			c0.186-0.395,0.49-1.045,0.693-1.658c0.19-0.59,0.359-1.191,0.374-1.525c0.365-0.055,0.931,0.068,1.416,0.297
			c0.952,0.445,1.087,0.766,0.566,1.879c-0.143,0.303-0.308,0.65-0.513,1.035c-0.21,0.383-0.438,0.814-0.646,1.254l-1.166,2.486
			c-0.335,0.719-0.651,1.45-0.804,2.083L198.179,57.513z"/>
		<path fill="#FFFFFF" d="M210.952,59.473l-2.131,3.386c-0.754,1.221-0.938,2.103-1.09,2.883c-0.306,0.053-0.996-0.194-1.52-0.519
			c-0.849-0.527-0.993-0.828-0.627-1.415l0.2-0.327c0.082-0.133,0.176-0.284,0.292-0.423c-0.826,0.604-2.331,0.696-3.703-0.155
			c-1.462-0.903-2.052-1.993-2.128-3.185c-0.076-1.194,0.369-2.397,1.111-3.596c0.417-0.676,0.83-1.294,1.234-1.799
			c0.402-0.504,0.709-0.947,0.909-1.275l0.366-0.588c0.324-0.523,0.418-0.918,0.539-1.355c0.288-0.031,0.939,0.189,1.375,0.459
			c0.76,0.473,0.942,0.857,0.419,1.707c-0.146,0.24-0.348,0.511-0.545,0.78c-0.451,0.534-0.908,1.126-1.38,1.739
			c-0.244,0.3-0.469,0.613-0.659,0.917c-0.483,0.785-0.875,1.659-0.89,2.464c-0.017,0.803,0.306,1.548,1.267,2.143
			c0.695,0.432,1.459,0.42,2.109,0.191c0.654-0.227,1.237-0.681,1.585-1.099c0.543-0.871,1.09-1.708,1.653-2.566l0.136-0.218
			c0.227-0.371,0.539-0.871,0.777-1.356c0.24-0.484,0.425-0.974,0.457-1.224c0.306-0.054,0.887,0.126,1.387,0.438
			c0.786,0.485,0.934,0.879,0.342,1.838c-0.232,0.37-0.469,0.706-0.719,1.062L210.952,59.473z"/>
	</g>
	<g>
		<path fill="#FFFFFF" d="M246.209,225.671c1.211,0.837,1.922,1.125,2.717,1.29c0.063,0.251-0.162,0.829-0.506,1.324
			c-0.273,0.399-0.463,0.59-0.72,0.62c-0.268,0.048-0.539-0.111-1.036-0.366c0.123,1.348-0.19,2.48-0.835,3.414
			c-1.166,1.688-3.08,2.038-4.689,0.926c-0.875-0.604-1.323-1.442-1.387-2.368c-0.065-0.925,0.212-1.878,0.856-2.811
			c0.536-0.774,1.152-1.494,1.827-2.173l-0.201-0.138c-1.189-0.823-2.391-0.744-3.42,0.747c-0.754,1.091-0.812,2.108-0.66,3.034
			c-0.512,0.234-1.114,0.083-1.49-0.179c-0.557-0.384-0.523-1.152-0.283-1.926s0.736-1.575,1.065-2.052
			c1.003-1.448,2.064-2.094,3.144-2.17c1.1-0.062,2.237,0.459,3.428,1.283l0.813,0.562
			C245.132,224.896,245.606,225.227,246.209,225.671z M242.289,228.245c-0.331,0.475-0.566,0.986-0.614,1.481
			c-0.049,0.495,0.162,0.993,0.66,1.337c0.873,0.604,1.677,0.249,2.211-0.524c0.509-0.734,0.761-1.823,0.573-3.039
			c-0.462-0.349-0.865-0.656-1.343-0.984C243.267,226.954,242.712,227.628,242.289,228.245z"/>
		<path fill="#FFFFFF" d="M248.936,212.304c0.752,0.436,1.505,0.872,2.288,1.3c1.02,0.553,1.784,0.914,2.467,1.175
			c0.681,0.263,1.237,0.398,1.82,0.495c0.088,0.187-0.108,0.903-0.433,1.497c-0.265,0.487-0.574,1.007-1.062,0.741l-0.466-0.254
			c-0.191-0.104-0.371-0.229-0.551-0.354c0.286,0.486,0.495,1.012,0.519,1.573c0.044,0.577-0.053,1.21-0.467,1.973
			c-0.647,1.188-1.633,1.887-2.773,2.118c-1.155,0.252-2.476,0.002-3.768-0.703c-1.252-0.68-2.24-1.794-2.734-3.107
			c-0.473-1.303-0.433-2.789,0.353-4.231c0.496-0.913,1.082-1.335,1.598-1.523c-0.73-0.424-1.93-1.104-3.223-1.807
			c-1.188-0.646-2.386-1.324-3.262-1.279c-0.043-0.323,0.105-0.849,0.348-1.295c0.277-0.508,0.522-0.759,0.849-0.804
			c0.347-0.028,0.719,0.146,1.292,0.456c0.91,0.496,2.013,1.097,3.295,1.82L248.936,212.304z M247.474,219.944
			c0.699,0.38,1.503,0.57,2.22,0.466c0.717-0.106,1.366-0.493,1.827-1.343c0.59-1.08,0.328-2.267-0.283-3.012l-0.086-0.048
			c-0.211-0.114-0.467-0.253-0.784-0.426l-0.996-0.541c-0.36-0.195-0.723-0.394-1.092-0.622l-1.061-0.576
			c-0.538,0.23-1.189,0.672-1.57,1.372c-0.461,0.848-0.429,1.8-0.092,2.644C245.896,218.7,246.604,219.47,247.474,219.944z"/>
		<path fill="#FFFFFF" d="M252.006,197.916c0.097,0.273,0.494,0.773,1.015,1.22c2.949,2.551,5.821,5.096,8.741,7.663
			c0.825,0.725,1.452,1.292,1.949,1.675c0.495,0.385,0.855,0.713,1.092,0.966c0.45,0.494,0.439,0.776,0.158,1.47
			c-0.171,0.424-0.416,0.768-0.643,1.067c-0.107,0.138-0.214,0.277-0.328,0.361c-0.089,0.095-0.172,0.165-0.201,0.178
			c-0.33-0.731-1.064-1.681-1.927-2.63c-0.843-0.941-1.815-1.882-2.596-2.59l-0.09,0.223c-0.246,0.605-0.358,0.819-0.879,0.814
			c-0.029,0.016-0.184,0.006-0.466-0.005c-0.292,0.012-0.672-0.013-1.162-0.029l-3.445-0.045c-1.255,0.012-2.498,0.001-3.516,0.007
			c-0.337-0.008-0.798,0.039-1.159,0.101c-0.375,0.083-0.726,0.174-0.908,0.308c-0.058-0.308,0.012-0.802,0.194-1.25
			c0.262-0.648,0.396-0.984,0.766-1.12c0.103-0.061,0.352-0.091,0.704-0.128c0.745-0.04,1.825-0.067,3.081-0.081
			c0.641,0.025,1.289,0.03,1.938,0.032l3.662,0.029c-0.872-0.743-1.732-1.511-2.601-2.255l-2.61-2.23
			c-0.336-0.268-0.602-0.506-0.857-0.713c-0.473-0.375-0.781-0.707-0.814-1.138c-0.016-0.216,0.039-0.479,0.175-0.813
			C251.497,198.465,251.849,197.981,252.006,197.916z"/>
		<path fill="#FFFFFF" d="M263.834,195.222c-0.314,1.091-0.842,2.042-1.406,2.685c-0.563,0.641-1.144,1-1.607,0.865
			c-0.302-0.088-0.667-0.295-0.969-0.557c-0.301-0.265-0.512-0.577-0.523-0.882c1.42-0.392,2.271-1.427,2.594-2.539
			c0.317-1.088,0.234-2.018-0.718-2.294c-0.67-0.193-1.201,0.331-1.72,1.084c-0.245,0.406-0.511,0.807-0.769,1.26
			c-0.536,0.9-1.239,1.678-2.165,2.013c-0.452,0.17-1.003,0.162-1.628-0.021c-0.766-0.222-1.384-0.778-1.704-1.573
			c-0.331-0.774-0.398-1.75-0.097-2.792c0.194-0.672,0.542-1.527,0.938-2.193c0.417-0.657,0.912-1.068,1.465-0.982
			c0.301,0.09,0.908,0.34,1.253,1.145c-0.914,0.463-1.613,1.314-1.909,2.336c-0.263,0.902-0.144,1.793,0.668,2.027
			c0.812,0.233,1.253-0.24,1.694-0.992c0.231-0.36,0.46-0.798,0.715-1.25c0.498-0.938,1.411-2.004,2.443-2.183
			c0.522-0.073,1.067-0.044,1.6,0.111c1.021,0.297,1.609,1.045,1.856,1.921C264.109,193.316,264.083,194.363,263.834,195.222z"/>
		<path fill="#FFFFFF" d="M250.274,177.926c0.219-0.228,0.483-0.322,0.792-0.262c0.569,0.113,1.018,0.449,1.354,0.984
			c-0.368,0.246-1.149,0.83-1.353,1.848c-0.149,0.757-0.056,1.392,0.501,1.945c0.554,0.553,1.565,1.023,3.294,1.368l0.545,0.109
			l0.369-1.846c0.135-0.687,0.214-1.583,0.092-2.075c0.349-0.15,0.823-0.181,1.226-0.1c0.828,0.166,0.923,0.553,0.72,1.57
			c-0.04,0.214-0.094,0.474-0.18,0.778l-0.206,1.042l-0.197,0.992l4.283,0.854c1.705,0.339,3.206,0.345,4.128,0.157
			c0.164,0.156,0.129,0.962-0.009,1.648l-0.036,0.189c-0.162,0.683-0.331,1.042-0.995,0.909l-0.565-0.113
			c-0.333-0.066-0.707-0.164-1.122-0.298c-0.398-0.103-0.819-0.212-1.223-0.292l-7.931-1.578c-1.421-0.285-2.731-0.865-3.627-1.807
			c-0.872-0.936-1.3-2.252-0.954-3.979C249.344,179.144,249.622,178.363,250.274,177.926z"/>
		<path fill="#FFFFFF" d="M256.927,173.074c0.173-1.608,0.938-2.861,2.048-3.714c1.108-0.831,2.533-1.211,3.951-1.06
			c1.438,0.155,2.777,0.807,3.711,1.829c0.935,1.022,1.435,2.483,1.259,4.14c-0.168,1.562-0.934,2.814-2.016,3.646
			c-1.087,0.854-2.536,1.234-4.048,1.071c-1.44-0.153-2.75-0.852-3.659-1.896C257.266,176.047,256.761,174.635,256.927,173.074z
			 M265.856,174.028c0.11-1.032-0.215-1.845-0.828-2.469c-0.611-0.624-1.496-0.984-2.457-1.088c-1.081-0.115-2.004,0.127-2.665,0.64
			c-0.638,0.514-1.059,1.27-1.153,2.158c-0.097,0.889,0.157,1.691,0.722,2.312c0.562,0.642,1.468,1.055,2.546,1.169
			c0.866,0.092,1.758-0.08,2.487-0.536C265.235,175.758,265.746,175.06,265.856,174.028z"/>
		<path fill="#FFFFFF" d="M262.019,155.834l2.221-0.011c1.737-0.01,2.967-0.281,3.809-0.6c0.195,0.217,0.343,0.914,0.346,1.567
			c0.002,0.48-0.021,0.796-0.211,0.988c-0.193,0.195-0.554,0.27-1.229,0.273c-0.387,0.003-0.869-0.02-1.424-0.065
			c-0.556-0.021-1.11-0.041-1.617-0.04l-1.642,0.009c-2.099,0.01-2.819,0.69-2.813,1.656c0.004,0.939,0.734,2.144,1.609,3.226
			l3.281-0.02c0.676-0.003,1.423-0.103,2.098-0.228c0.676-0.124,1.253-0.296,1.638-0.468c0.195,0.218,0.345,0.965,0.348,1.616
			c0.004,0.578-0.067,0.918-0.285,1.087c-0.191,0.194-0.578,0.222-1.155,0.224c-0.314,0.001-0.7-0.021-1.11-0.067
			c-0.411-0.021-0.845-0.043-1.281-0.04l-3.016,0.015l-0.481,0.002c-0.581,0.029-1.352,0.081-2.122,0.18
			c-0.388,0.076-0.7,0.148-0.917,0.247c-0.194-0.264-0.317-0.891-0.319-1.35c-0.004-0.749,0.379-1.087,1.609-1.095
			c-1.142-1.634-1.606-2.886-1.612-3.948c-0.006-1.085,0.497-1.883,1.265-2.396C259.776,156.087,260.86,155.841,262.019,155.834z"/>
		<path fill="#FFFFFF" d="M264.751,145.395c0.356-0.304,0.802-0.47,1.185-0.51c1.081-0.113,1.459,0.479,1.568,1.535l0.052,0.529
			c0.033,1.477-0.556,2.338-1.402,2.861c-0.843,0.526-1.965,0.715-3.093,0.832l-3.794,0.392c0.028,0.264,0.073,0.696,0.161,1.1
			c0.092,0.402,0.231,0.801,0.347,0.984c-0.293,0.223-0.693,0.337-1.053,0.375c-0.481,0.05-0.752,0.004-0.901-0.271
			c-0.147-0.251-0.218-0.682-0.297-1.45l-0.058-0.551l-1.055,0.108c-0.458,0.048-0.983,0.126-1.458,0.223
			c-0.476,0.099-0.898,0.239-1.102,0.381c-0.194-0.248-0.367-0.739-0.425-1.29l-0.013-0.121c0.014-0.801,0.177-1.11,1.259-1.221
			c0.312-0.032,0.648-0.068,1.034-0.085c0.41-0.017,0.822-0.034,1.275-0.081l0.314-0.032l-0.113-1.105
			c-0.079-0.769-0.245-1.649-0.492-1.938c0.246-0.196,0.646-0.335,1.028-0.373c0.841-0.088,1.049,0.037,1.135,0.878l0.047,0.455
			c0.023,0.218,0.047,0.456,0.047,0.698l0.083,0.793l0.042,0.408l4.034-0.417c1.464-0.151,2.422-0.519,2.292-1.765
			C265.339,146.136,264.996,145.637,264.751,145.395z"/>
		<path fill="#FFFFFF" d="M264.701,139.012c0.881-0.148,1.693,0.448,1.838,1.304c0.146,0.855-0.424,1.686-1.304,1.837
			c-0.856,0.145-1.691-0.448-1.836-1.305C263.254,139.992,263.847,139.157,264.701,139.012z"/>
		<path fill="#FFFFFF" d="M262.378,127.656c0.446-0.109,0.972,0.21,1.436,0.793c0.465,0.579,0.913,1.392,1.124,2.259
			c0.368,1.502,0.145,2.924-0.565,4.09c-0.707,1.167-1.883,2.051-3.454,2.436c-1.383,0.34-2.871,0.154-4.132-0.531
			c-1.231-0.667-2.204-1.796-2.588-3.367c-0.155-0.635-0.221-1.512-0.135-2.279c0.109-0.771,0.382-1.387,0.921-1.517
			c0.446-0.109,1.113-0.023,1.648,0.44c-0.619,0.724-0.945,1.723-0.675,2.826c0.206,0.843,0.73,1.561,1.499,1.968
			c0.777,0.434,1.759,0.59,2.884,0.313c0.87-0.212,1.639-0.723,2.134-1.439c0.498-0.719,0.689-1.659,0.436-2.693
			c-0.269-1.1-1.062-1.603-1.921-1.965c0.095-0.422,0.366-0.735,0.637-0.95S262.19,127.702,262.378,127.656z"/>
		<path fill="#FFFFFF" d="M250.997,123.052c-0.546-1.521-0.403-2.984,0.223-4.235c0.635-1.228,1.752-2.194,3.09-2.676
			c1.362-0.489,2.853-0.487,4.14,0.026c1.285,0.512,2.372,1.607,2.938,3.176c0.531,1.477,0.39,2.938-0.223,4.158
			c-0.605,1.242-1.745,2.217-3.175,2.73c-1.363,0.49-2.846,0.434-4.117-0.109C252.6,125.579,251.528,124.527,250.997,123.052z
			 M259.448,120.015c-0.354-0.977-0.999-1.565-1.823-1.859c-0.823-0.295-1.776-0.234-2.687,0.092
			c-1.021,0.369-1.747,0.987-2.12,1.737c-0.349,0.741-0.396,1.605-0.095,2.446c0.304,0.84,0.882,1.453,1.662,1.762
			c0.786,0.334,1.776,0.312,2.799-0.057c0.818-0.295,1.546-0.839,2.003-1.565C259.644,121.843,259.8,120.991,259.448,120.015z"/>
		<path fill="#FFFFFF" d="M246.863,98.785c1.556-0.824,2.52-1.582,3.117-2.309c0.294,0.093,0.749,0.641,1.055,1.218
			c0.53,1.001,0.418,1.251-0.413,1.692c-0.363,0.192-0.844,0.421-1.398,0.659c-0.556,0.24-1.099,0.501-1.611,0.771l-1.216,0.645
			c-1.812,0.96-2.315,2.02-1.874,2.851c0.439,0.831,1.543,1.421,2.772,1.833c0.308-0.244,0.724-0.492,1.127-0.705l1.578-0.836
			c1.536-0.814,2.466-1.635,3.086-2.318c0.294,0.144,0.761,0.662,1.066,1.237c0.485,0.917,0.403,1.125-0.225,1.538l-0.659,0.349
			c-0.406,0.216-0.822,0.41-1.292,0.603c-0.449,0.186-0.888,0.39-1.28,0.625l-1.237,0.655c-0.959,0.509-1.573,0.997-1.833,1.489
			c-0.258,0.492-0.269,0.934-0.053,1.34c0.439,0.831,1.631,1.484,2.74,1.769l2.685-1.422c1.536-0.813,2.506-1.711,3.084-2.426
			c0.294,0.09,0.772,0.684,1.088,1.28c0.484,0.916,0.525,1.196-0.243,1.603c-0.361,0.192-0.801,0.397-1.313,0.614
			c-0.501,0.238-1.003,0.476-1.535,0.76l-2.387,1.266l-0.514,0.27c-0.521,0.303-1.224,0.73-1.795,1.145
			c-0.277,0.2-0.457,0.377-0.56,0.543c-0.273-0.156-0.572-0.464-0.775-0.792l-0.168-0.321c-0.059-0.105-0.082-0.203-0.094-0.277
			c0.012,0.021,0.031-0.043,0.062-0.143c0.08-0.208,0.247-0.513,0.522-0.821c0.135-0.153,0.294-0.266,0.485-0.367
			c-1.723-0.727-2.637-1.524-3.123-2.442c-0.553-1.043-0.396-2.136,0.412-3.139c-1.851-0.657-2.907-1.571-3.461-2.614
			c-0.949-1.793,0.106-3.664,2.643-5.007L246.863,98.785z"/>
	</g>
	<g>
		<path fill="#FFFFFF" d="M49.193,235.269c-0.558,0-1.108-0.245-1.479-0.715c-8.082-10.207-14.449-21.602-18.926-33.87
			c-0.358-0.979,0.146-2.062,1.124-2.418c0.979-0.354,2.06,0.146,2.416,1.123c4.34,11.892,10.511,22.935,18.342,32.822
			c0.646,0.817,0.509,2.004-0.308,2.648C50.014,235.136,49.603,235.269,49.193,235.269z"/>
	</g>
	<g>
		<path fill="#FFFFFF" d="M241.356,93.004c-0.595,0-1.182-0.281-1.548-0.808c-6.644-9.532-14.628-18.008-23.73-25.191
			c-0.818-0.645-0.957-1.83-0.312-2.648c0.647-0.818,1.83-0.954,2.648-0.312c9.393,7.416,17.634,16.16,24.487,25.996
			c0.595,0.854,0.387,2.03-0.468,2.625C242.104,92.894,241.729,93.004,241.356,93.004z"/>
	</g>
</g>
</svg>
