<svg id="Layer_1" data-name="Layer 1" xmlns="http://www.w3.org/2000/svg" viewBox="0 0 1598 1290"><defs><style>.cls-1{fill:#fff;}.cls-1,.cls-5{stroke:#4d9ef6;}.cls-1,.cls-5,.cls-7,.cls-9{stroke-width:2px;}.cls-2{isolation:isolate;font-size:14px;fill:#52565f;font-family:ArialMT, Arial;}.cls-3{letter-spacing:-0.02em;}.cls-4{letter-spacing:-0.04em;}.cls-5,.cls-7,.cls-9{fill:none;stroke-dasharray:0 0;}.cls-6{fill:#4d9ef6;}.cls-7{stroke:#fd6764;}.cls-8{fill:#fd6764;}.cls-9{stroke:#76e27a;}.cls-10{fill:#76e27a;}</style></defs><title>diagrama-1</title><path class="cls-1" d="M1459.23,774.88l41.5-65.5a2.46,2.46,0,0,1,3.44-.55,2.65,2.65,0,0,1,.56.55l41.5,65.5,41.5,65.5a3.84,3.84,0,0,1,0,4l-41.5,65.5-41.5,65.5a2.47,2.47,0,0,1-3.45.56,2.25,2.25,0,0,1-.55-.56l-41.5-65.5-41.5-65.5a3.79,3.79,0,0,1,0-4Z" transform="translate(-157.73 -5.38)"/><text class="cls-2" transform="translate(1298.31 802)">Check whether</text><text class="cls-2" transform="translate(1316.98 822)">there are</text><text class="cls-2" transform="translate(1297.13 842)">enough players</text><text class="cls-2" transform="translate(1299.08 862)">to continue the</text><text class="cls-2" transform="translate(1327.49 882)">game</text><path class="cls-1" d="M1067.23,790.88l41.5-49.5a2.76,2.76,0,0,1,3.91-.08l.09.08,41.5,49.5,41.5,49.5a3.27,3.27,0,0,1,0,4l-41.5,49.5-41.5,49.5a2.77,2.77,0,0,1-3.92.09l-.08-.09-41.5-49.5-41.5-49.5a3.27,3.27,0,0,1,0-4Z" transform="translate(-157.73 -5.38)"/><text class="cls-2" transform="translate(906.31 812)">Check whether</text><text class="cls-2" transform="translate(914.87 832)">the skip turn</text><text class="cls-2" transform="translate(903.57 852)">count is enough</text><text class="cls-2" transform="translate(914.08 872)">to end game</text><path class="cls-1" d="M731.23,790.88l41.5-49.5a2.76,2.76,0,0,1,3.91-.08l.09.08,41.5,49.5,41.5,49.5a3.27,3.27,0,0,1,0,4l-41.5,49.5-41.5,49.5a2.77,2.77,0,0,1-3.92.09l-.08-.09-41.5-49.5-41.5-49.5a3.27,3.27,0,0,1,0-4Z" transform="translate(-157.73 -5.38)"/><text class="cls-2" transform="translate(570.31 822)">Check whether</text><text class="cls-2" transform="translate(583.15 842)">the input is</text><text class="cls-2" transform="translate(595.61 862)">correct</text><path class="cls-1" d="M862.23,6.38h161a3.42,3.42,0,0,1,3.5,3.5v65a3.42,3.42,0,0,1-3.5,3.5h-161a3.42,3.42,0,0,1-3.5-3.5v-65A3.42,3.42,0,0,1,862.23,6.38Z" transform="translate(-157.73 -5.38)"/><text class="cls-2" transform="translate(749.21 42)">Game Start</text><path class="cls-1" d="M862.23,166.38h161a3.42,3.42,0,0,1,3.5,3.5v65a3.42,3.42,0,0,1-3.5,3.5h-161a3.42,3.42,0,0,1-3.5-3.5v-65A3.42,3.42,0,0,1,862.23,166.38Z" transform="translate(-157.73 -5.38)"/><text class="cls-2" transform="translate(741.42 202)">Player on turn</text><path class="cls-1" d="M694.23,454.38h161a3.42,3.42,0,0,1,3.5,3.5v65a3.42,3.42,0,0,1-3.5,3.5h-161a3.42,3.42,0,0,1-3.5-3.5v-65A3.42,3.42,0,0,1,694.23,454.38Z" transform="translate(-157.73 -5.38)"/><text class="cls-2" transform="translate(582.25 490)"><tspan class="cls-3">W</tspan><tspan x="12.96" y="0">rite </tspan><tspan class="cls-3" x="36.3" y="0">W</tspan><tspan x="49.26" y="0">ord</tspan></text><path class="cls-1" d="M1030.23,454.38h161a3.42,3.42,0,0,1,3.5,3.5v65a3.42,3.42,0,0,1-3.5,3.5h-161a3.42,3.42,0,0,1-3.5-3.5v-65A3.42,3.42,0,0,1,1030.23,454.38Z" transform="translate(-157.73 -5.38)"/><text class="cls-2" transform="translate(923.43 490)">Skip<tspan class="cls-3" x="27.23" y="0"> </tspan><tspan class="cls-4" x="30.87" y="0">T</tspan><tspan x="38.9" y="0">urn</tspan></text><path class="cls-1" d="M358.23,454.38h161a3.42,3.42,0,0,1,3.5,3.5v65a3.42,3.42,0,0,1-3.5,3.5h-161a3.42,3.42,0,0,1-3.5-3.5v-65A3.42,3.42,0,0,1,358.23,454.38Z" transform="translate(-157.73 -5.38)"/><text class="cls-2" transform="translate(236.63 490)">Change Letter</text><path class="cls-1" d="M1310.23,166.38h161a3.42,3.42,0,0,1,3.5,3.5v65a3.42,3.42,0,0,1-3.5,3.5h-161a3.42,3.42,0,0,1-3.5-3.5v-65A3.42,3.42,0,0,1,1310.23,166.38Z" transform="translate(-157.73 -5.38)"/><text class="cls-2" transform="translate(1192.92 202)">Leave Game</text><path class="cls-1" d="M862.23,326.38h161a3.42,3.42,0,0,1,3.5,3.5v65a3.42,3.42,0,0,1-3.5,3.5h-161a3.42,3.42,0,0,1-3.5-3.5v-65A3.42,3.42,0,0,1,862.23,326.38Z" transform="translate(-157.73 -5.38)"/><text class="cls-2" transform="translate(728.97 362)">Decide what to do</text><path class="cls-1" d="M190.23,1062.38h161a3.42,3.42,0,0,1,3.5,3.5v65a3.42,3.42,0,0,1-3.5,3.5h-161a3.42,3.42,0,0,1-3.5-3.5v-65A3.42,3.42,0,0,1,190.23,1062.38Z" transform="translate(-157.73 -5.38)"/><text class="cls-2" transform="translate(76.82 1098)">Next Player</text><path class="cls-1" d="M862.23,1094.38h161a3.42,3.42,0,0,1,3.5,3.5v65a3.42,3.42,0,0,1-3.5,3.5h-161a3.42,3.42,0,0,1-3.5-3.5v-65A3.42,3.42,0,0,1,862.23,1094.38Z" transform="translate(-157.73 -5.38)"/><text class="cls-2" transform="translate(708.34 1130)">End and Save the Game</text><path class="cls-1" d="M862.23,1222.38h161a3.42,3.42,0,0,1,3.5,3.5v65a3.42,3.42,0,0,1-3.5,3.5h-161a3.42,3.42,0,0,1-3.5-3.5v-65A3.42,3.42,0,0,1,862.23,1222.38Z" transform="translate(-157.73 -5.38)"/><text class="cls-2" transform="translate(734.04 1258)">Game Summary</text><path class="cls-1" d="M358.23,614.38h161a3.42,3.42,0,0,1,3.5,3.5v65a3.42,3.42,0,0,1-3.5,3.5h-161a3.42,3.42,0,0,1-3.5-3.5v-65A3.42,3.42,0,0,1,358.23,614.38Z" transform="translate(-157.73 -5.38)"/><text class="cls-2" transform="translate(209.79 650)">Choose tiles to change</text><path class="cls-1" d="M358.23,806.38h161a3.42,3.42,0,0,1,3.5,3.5v65a3.42,3.42,0,0,1-3.5,3.5h-161a3.42,3.42,0,0,1-3.5-3.5v-65A3.42,3.42,0,0,1,358.23,806.38Z" transform="translate(-157.73 -5.38)"/><text class="cls-2" transform="translate(256.48 842)">Change</text><path class="cls-1" d="M694.23,614.38h161a3.42,3.42,0,0,1,3.5,3.5v65a3.42,3.42,0,0,1-3.5,3.5h-161a3.42,3.42,0,0,1-3.5-3.5v-65A3.42,3.42,0,0,1,694.23,614.38Z" transform="translate(-157.73 -5.38)"/><text class="cls-2" transform="translate(557.47 650)">Place tiles ot board</text><path class="cls-1" d="M1590.23,454.38h161a3.42,3.42,0,0,1,3.5,3.5v65a3.42,3.42,0,0,1-3.5,3.5h-161a3.42,3.42,0,0,1-3.5-3.5v-65A3.42,3.42,0,0,1,1590.23,454.38Z" transform="translate(-157.73 -5.38)"/><text class="cls-2" transform="translate(1430.51 480)">Mark the player as left and</text><text class="cls-2" transform="translate(1443.75 500)">redirect them to Home</text><path class="cls-1" d="M1366.23,454.38h161a3.42,3.42,0,0,1,3.5,3.5v65a3.42,3.42,0,0,1-3.5,3.5h-161a3.42,3.42,0,0,1-3.5-3.5v-65A3.42,3.42,0,0,1,1366.23,454.38Z" transform="translate(-157.73 -5.38)"/><text class="cls-2" transform="translate(1248.02 480)"><tspan class="cls-4">T</tspan><tspan x="8.03" y="0">urn</tspan><tspan class="cls-3" x="28.27" y="0"> </tspan><tspan class="cls-4" x="31.9" y="0">T</tspan><tspan x="39.94" y="0">imeout</tspan></text><text class="cls-2" transform="translate(1235.7 500)">(when time is up)</text><path class="cls-5" d="M942.73,79.38v84" transform="translate(-157.73 -5.38)"/><path class="cls-6" d="M942.73,75.38a3,3,0,1,0,3,3A3,3,0,0,0,942.73,75.38Z" transform="translate(-157.73 -5.38)"/><path class="cls-6" d="M943.39,165.11a.92.92,0,0,1-1.32,0L936,159a1,1,0,0,1,0-1.33.92.92,0,0,1,1.32,0l5.41,5.45,5.4-5.45a.92.92,0,0,1,1.32,0,.94.94,0,0,1,0,1.33Z" transform="translate(-157.73 -5.38)"/><path class="cls-5" d="M942.73,79.38v49q0,10,10,10h428q10,0,10,10v15" transform="translate(-157.73 -5.38)"/><path class="cls-6" d="M942.73,75.38a3,3,0,1,0,3,3A3,3,0,0,0,942.73,75.38Z" transform="translate(-157.73 -5.38)"/><path class="cls-6" d="M1391.39,165.11a.92.92,0,0,1-1.32,0L1384,159a1,1,0,0,1,0-1.33.92.92,0,0,1,1.32,0l5.41,5.45,5.4-5.45a.92.92,0,0,1,1.32,0,.94.94,0,0,1,0,1.33Z" transform="translate(-157.73 -5.38)"/><path class="cls-5" d="M942.73,239.38v84" transform="translate(-157.73 -5.38)"/><path class="cls-6" d="M942.73,235.38a3,3,0,1,0,3,3A3,3,0,0,0,942.73,235.38Z" transform="translate(-157.73 -5.38)"/><path class="cls-6" d="M943.39,325.11a.92.92,0,0,1-1.32,0L936,319a1,1,0,0,1,0-1.33.92.92,0,0,1,1.32,0l5.41,5.45,5.4-5.45a.92.92,0,0,1,1.32,0,.94.94,0,0,1,0,1.33Z" transform="translate(-157.73 -5.38)"/><path class="cls-5" d="M774.73,527.38v84" transform="translate(-157.73 -5.38)"/><path class="cls-6" d="M774.73,523.38a3,3,0,1,0,3,3A3,3,0,0,0,774.73,523.38Z" transform="translate(-157.73 -5.38)"/><path class="cls-6" d="M775.39,613.11a.92.92,0,0,1-1.32,0L768,607a1,1,0,0,1,0-1.33.92.92,0,0,1,1.32,0l5.41,5.45,5.4-5.45a.92.92,0,0,1,1.32,0,.94.94,0,0,1,0,1.33Z" transform="translate(-157.73 -5.38)"/><path class="cls-5" d="M1110.73,527.38v210.5" transform="translate(-157.73 -5.38)"/><path class="cls-6" d="M1110.73,523.38a3,3,0,1,0,3,3A3,3,0,0,0,1110.73,523.38Z" transform="translate(-157.73 -5.38)"/><path class="cls-6" d="M1111.39,739.61a.92.92,0,0,1-1.32,0l-6.07-6.12a1,1,0,0,1,0-1.33.92.92,0,0,1,1.32,0l5.41,5.45,5.4-5.45a.92.92,0,0,1,1.32,0,.94.94,0,0,1,0,1.33Z" transform="translate(-157.73 -5.38)"/><path class="cls-5" d="M438.73,527.38v84" transform="translate(-157.73 -5.38)"/><path class="cls-6" d="M438.73,523.38a3,3,0,1,0,3,3A3,3,0,0,0,438.73,523.38Z" transform="translate(-157.73 -5.38)"/><path class="cls-6" d="M439.39,613.11a.92.92,0,0,1-1.32,0L432,607a1,1,0,0,1,0-1.33.92.92,0,0,1,1.32,0l5.41,5.45,5.4-5.45a.92.92,0,0,1,1.32,0,.94.94,0,0,1,0,1.33Z" transform="translate(-157.73 -5.38)"/><path class="cls-5" d="M1390.73,239.38v49q0,10,10,10h260q10,0,10,10v143" transform="translate(-157.73 -5.38)"/><path class="cls-6" d="M1390.73,235.38a3,3,0,1,0,3,3A3,3,0,0,0,1390.73,235.38Z" transform="translate(-157.73 -5.38)"/><path class="cls-6" d="M1671.39,453.11a.92.92,0,0,1-1.32,0L1664,447a1,1,0,0,1,0-1.33.92.92,0,0,1,1.32,0l5.41,5.45,5.4-5.45a.92.92,0,0,1,1.32,0,.94.94,0,0,1,0,1.33Z" transform="translate(-157.73 -5.38)"/><path class="cls-5" d="M942.73,399.38v17q0,10-10,10h-148q-10,0-10,10v15" transform="translate(-157.73 -5.38)"/><path class="cls-6" d="M942.73,395.38a3,3,0,1,0,3,3A3,3,0,0,0,942.73,395.38Z" transform="translate(-157.73 -5.38)"/><path class="cls-6" d="M775.39,453.11a.92.92,0,0,1-1.32,0L768,447a1,1,0,0,1,0-1.33.92.92,0,0,1,1.32,0l5.41,5.45,5.4-5.45a.92.92,0,0,1,1.32,0,.94.94,0,0,1,0,1.33Z" transform="translate(-157.73 -5.38)"/><path class="cls-5" d="M942.73,399.38v17q0,10,10,10h148q10,0,10,10v15" transform="translate(-157.73 -5.38)"/><path class="cls-6" d="M942.73,395.38a3,3,0,1,0,3,3A3,3,0,0,0,942.73,395.38Z" transform="translate(-157.73 -5.38)"/><path class="cls-6" d="M1111.39,453.11a.92.92,0,0,1-1.32,0L1104,447a1,1,0,0,1,0-1.33.92.92,0,0,1,1.32,0l5.41,5.45,5.4-5.45a.92.92,0,0,1,1.32,0,.94.94,0,0,1,0,1.33Z" transform="translate(-157.73 -5.38)"/><path class="cls-5" d="M942.73,399.38v17q0,10-10,10h-484q-10,0-10,10v15" transform="translate(-157.73 -5.38)"/><path class="cls-6" d="M942.73,395.38a3,3,0,1,0,3,3A3,3,0,0,0,942.73,395.38Z" transform="translate(-157.73 -5.38)"/><path class="cls-6" d="M439.39,453.11a.92.92,0,0,1-1.32,0L432,447a1,1,0,0,1,0-1.33.92.92,0,0,1,1.32,0l5.41,5.45,5.4-5.45a.92.92,0,0,1,1.32,0,.94.94,0,0,1,0,1.33Z" transform="translate(-157.73 -5.38)"/><path class="cls-5" d="M942.73,399.38v17q0,10,10,10h484q10,0,10,10v15" transform="translate(-157.73 -5.38)"/><path class="cls-6" d="M942.73,395.38a3,3,0,1,0,3,3A3,3,0,0,0,942.73,395.38Z" transform="translate(-157.73 -5.38)"/><path class="cls-6" d="M1447.39,453.11a.92.92,0,0,1-1.32,0L1440,447a1,1,0,0,1,0-1.33.92.92,0,0,1,1.32,0l5.41,5.45,5.4-5.45a.92.92,0,0,1,1.32,0,.94.94,0,0,1,0,1.33Z" transform="translate(-157.73 -5.38)"/><path class="cls-5" d="M270.73,1135.38v17q0,10-10,10h-92q-10,0-10-10v-940q0-10,10-10h687" transform="translate(-157.73 -5.38)"/><path class="cls-6" d="M270.73,1131.38a3,3,0,1,0,3,3A3,3,0,0,0,270.73,1131.38Z" transform="translate(-157.73 -5.38)"/><path class="cls-6" d="M857.45,201.72a.92.92,0,0,1,0,1.32l-6.12,6.07a.94.94,0,0,1-1.33,0,.92.92,0,0,1,0-1.32l5.45-5.41L850,197a.92.92,0,0,1,0-1.32.94.94,0,0,1,1.33,0Z" transform="translate(-157.73 -5.38)"/><path class="cls-7" d="M1197.73,842.38h15q10,0,10,10v172q0,10-10,10h-932q-10,0-10,10v15" transform="translate(-157.73 -5.38)"/><path class="cls-8" d="M1193.73,842.38a3,3,0,1,0,3-3A3,3,0,0,0,1193.73,842.38Z" transform="translate(-157.73 -5.38)"/><path class="cls-8" d="M271.39,1061.11a.92.92,0,0,1-1.32,0L264,1055a1,1,0,0,1,0-1.33.92.92,0,0,1,1.32,0l5.41,5.45,5.4-5.45a.92.92,0,0,1,1.32,0,.94.94,0,0,1,0,1.33Z" transform="translate(-157.73 -5.38)"/><path class="cls-9" d="M1110.73,944.88v111.5q0,10-10,10h-148q-10,0-10,10v15" transform="translate(-157.73 -5.38)"/><path class="cls-10" d="M1110.73,940.88a3,3,0,1,0,3,3A3,3,0,0,0,1110.73,940.88Z" transform="translate(-157.73 -5.38)"/><path class="cls-10" d="M943.39,1093.11a.92.92,0,0,1-1.32,0L936,1087a1,1,0,0,1,0-1.33.92.92,0,0,1,1.32,0l5.41,5.45,5.4-5.45a.92.92,0,0,1,1.32,0,.94.94,0,0,1,0,1.33Z" transform="translate(-157.73 -5.38)"/><path class="cls-5" d="M942.73,1167.38v27h0v25" transform="translate(-157.73 -5.38)"/><path class="cls-6" d="M942.73,1163.38a3,3,0,1,0,3,3A3,3,0,0,0,942.73,1163.38Z" transform="translate(-157.73 -5.38)"/><path class="cls-6" d="M943.39,1221.11a.92.92,0,0,1-1.32,0L936,1215a1,1,0,0,1,0-1.33.92.92,0,0,1,1.32,0l5.41,5.45,5.4-5.45a.92.92,0,0,1,1.32,0,.94.94,0,0,1,0,1.33Z" transform="translate(-157.73 -5.38)"/><path class="cls-7" d="M1502.73,976.88v143.5q0,10-10,10h-463" transform="translate(-157.73 -5.38)"/><path class="cls-8" d="M1502.73,972.88a3,3,0,1,0,3,3A3,3,0,0,0,1502.73,972.88Z" transform="translate(-157.73 -5.38)"/><path class="cls-8" d="M1028,1131a.92.92,0,0,1,0-1.32l6.12-6.06a.94.94,0,0,1,1.33,0,.92.92,0,0,1,0,1.32l-5.45,5.4,5.45,5.41a.92.92,0,0,1,0,1.32.94.94,0,0,1-1.33,0Z" transform="translate(-157.73 -5.38)"/><path class="cls-9" d="M1589.73,842.38h15q10,0,10,10v140q0,10-10,10h-1324q-10,0-10,10v47" transform="translate(-157.73 -5.38)"/><path class="cls-10" d="M1585.73,842.38a3,3,0,1,0,3-3A3,3,0,0,0,1585.73,842.38Z" transform="translate(-157.73 -5.38)"/><path class="cls-10" d="M271.39,1061.11a.92.92,0,0,1-1.32,0L264,1055a1,1,0,0,1,0-1.33.92.92,0,0,1,1.32,0l5.41,5.45,5.4-5.45a.92.92,0,0,1,1.32,0,.94.94,0,0,1,0,1.33Z" transform="translate(-157.73 -5.38)"/><path class="cls-5" d="M438.73,687.38v116" transform="translate(-157.73 -5.38)"/><path class="cls-6" d="M438.73,683.38a3,3,0,1,0,3,3A3,3,0,0,0,438.73,683.38Z" transform="translate(-157.73 -5.38)"/><path class="cls-6" d="M439.39,805.11a.92.92,0,0,1-1.32,0L432,799a1,1,0,0,1,0-1.33.92.92,0,0,1,1.32,0l5.41,5.45,5.4-5.45a.92.92,0,0,1,1.32,0,.94.94,0,0,1,0,1.33Z" transform="translate(-157.73 -5.38)"/><path class="cls-5" d="M438.73,879.38v49q0,10-10,10h-92q-10,0-10,10v76q0,10-10,10h-36q-10,0-10,10v15" transform="translate(-157.73 -5.38)"/><path class="cls-6" d="M438.73,875.38a3,3,0,1,0,3,3A3,3,0,0,0,438.73,875.38Z" transform="translate(-157.73 -5.38)"/><path class="cls-6" d="M271.39,1061.11a.92.92,0,0,1-1.32,0L264,1055a1,1,0,0,1,0-1.33.92.92,0,0,1,1.32,0l5.41,5.45,5.4-5.45a.92.92,0,0,1,1.32,0,.94.94,0,0,1,0,1.33Z" transform="translate(-157.73 -5.38)"/><path class="cls-5" d="M774.73,687.38v27h0v23.5" transform="translate(-157.73 -5.38)"/><path class="cls-6" d="M774.73,683.38a3,3,0,1,0,3,3A3,3,0,0,0,774.73,683.38Z" transform="translate(-157.73 -5.38)"/><path class="cls-6" d="M775.39,739.61a.92.92,0,0,1-1.32,0L768,733.49a1,1,0,0,1,0-1.33.92.92,0,0,1,1.32,0l5.41,5.45,5.4-5.45a.92.92,0,0,1,1.32,0,.94.94,0,0,1,0,1.33Z" transform="translate(-157.73 -5.38)"/><path class="cls-9" d="M774.73,944.88v15.5q0,10-10,10h-484q-10,0-10,10v79" transform="translate(-157.73 -5.38)"/><path class="cls-10" d="M774.73,940.88a3,3,0,1,0,3,3A3,3,0,0,0,774.73,940.88Z" transform="translate(-157.73 -5.38)"/><path class="cls-10" d="M271.39,1061.11a.92.92,0,0,1-1.32,0L264,1055a1,1,0,0,1,0-1.33.92.92,0,0,1,1.32,0l5.41,5.45,5.4-5.45a.92.92,0,0,1,1.32,0,.94.94,0,0,1,0,1.33Z" transform="translate(-157.73 -5.38)"/><path class="cls-7" d="M687.73,842.38h-43q-10,0-10-10v-620q0-10,10-10h211" transform="translate(-157.73 -5.38)"/><path class="cls-8" d="M691.73,842.38a3,3,0,1,0-3,3A3,3,0,0,0,691.73,842.38Z" transform="translate(-157.73 -5.38)"/><path class="cls-8" d="M857.45,201.72a.92.92,0,0,1,0,1.32l-6.12,6.07a.94.94,0,0,1-1.33,0,.92.92,0,0,1,0-1.32l5.45-5.41L850,197a.92.92,0,0,1,0-1.32.94.94,0,0,1,1.33,0Z" transform="translate(-157.73 -5.38)"/><path class="cls-5" d="M1670.73,527.38v145q0,10-10,10h-148q-10,0-10,10v13.5" transform="translate(-157.73 -5.38)"/><path class="cls-6" d="M1670.73,523.38a3,3,0,1,0,3,3A3,3,0,0,0,1670.73,523.38Z" transform="translate(-157.73 -5.38)"/><path class="cls-6" d="M1503.39,707.61a.92.92,0,0,1-1.32,0l-6.07-6.12a1,1,0,0,1,0-1.33.92.92,0,0,1,1.32,0l5.41,5.45,5.4-5.45a.92.92,0,0,1,1.32,0,.94.94,0,0,1,0,1.33Z" transform="translate(-157.73 -5.38)"/><path class="cls-5" d="M1446.73,527.38v17q0,10-10,10h-1156q-10,0-10,10v495" transform="translate(-157.73 -5.38)"/><path class="cls-6" d="M1446.73,523.38a3,3,0,1,0,3,3A3,3,0,0,0,1446.73,523.38Z" transform="translate(-157.73 -5.38)"/><path class="cls-6" d="M271.39,1061.11a.92.92,0,0,1-1.32,0L264,1055a1,1,0,0,1,0-1.33.92.92,0,0,1,1.32,0l5.41,5.45,5.4-5.45a.92.92,0,0,1,1.32,0,.94.94,0,0,1,0,1.33Z" transform="translate(-157.73 -5.38)"/></svg>